<?xml version="1.0" encoding="UTF-8" standalone="no"?>
<!DOCTYPE svg PUBLIC "-//W3C//DTD SVG 1.1//EN"
 "http://www.w3.org/Graphics/SVG/1.1/DTD/svg11.dtd">
<!-- Generated by graphviz version 2.42.4 (0)
 -->
<!-- Title: __attribute__ Pages: 1 -->
<svg width="988pt" height="349pt"
 viewBox="0.00 0.00 988.00 348.50" xmlns="http://www.w3.org/2000/svg" xmlns:xlink="http://www.w3.org/1999/xlink">
<g id="graph0" class="graph" transform="scale(1 1) rotate(0) translate(4 344.5)">
<title>__attribute__</title>
<!-- Node1 -->
<g id="Node000001" class="node">
<title>Node1</title>
<g id="a_Node000001"><a xlink:title=" ">
<polygon fill="#999999" stroke="#666666" points="80,-179 0,-179 0,-160 80,-160 80,-179"/>
<text text-anchor="middle" x="40" y="-167" font-family="Helvetica,sans-Serif" font-size="10.00">__attribute__</text>
</a>
</g>
</g>
<!-- Node2 -->
<g id="Node000002" class="node">
<title>Node2</title>
<g id="a_Node000002"><a xlink:href="android__runtime__core_8cpp.html#ae9029d15ce730ee71dc6d3aedbf3ef2f" target="_top" xlink:title=" ">
<polygon fill="white" stroke="#666666" points="259,-253 116,-253 116,-234 259,-234 259,-253"/>
<text text-anchor="middle" x="187.5" y="-241" font-family="Helvetica,sans-Serif" font-size="10.00">GetJavaVMViaJNIStandard</text>
</a>
</g>
</g>
<!-- Node1&#45;&gt;Node2 -->
<g id="edge1_Node000001_Node000002" class="edge">
<title>Node1&#45;&gt;Node2</title>
<g id="a_edge1_Node000001_Node000002"><a xlink:title=" ">
<path fill="none" stroke="#63b8ff" d="M51.3,-179.3C65.01,-191.82 90.49,-213.31 116,-225.5 120.09,-227.45 124.41,-229.21 128.82,-230.79"/>
<polygon fill="#63b8ff" stroke="#63b8ff" points="127.99,-234.2 138.58,-233.97 130.16,-227.54 127.99,-234.2"/>
</a>
</g>
</g>
<!-- Node3 -->
<g id="Node000003" class="node">
<title>Node3</title>
<g id="a_Node000003"><a xlink:href="android__runtime__core_8cpp.html#a5c8a7b7217fe8f666a39e510436760b7" target="_top" xlink:title=" ">
<polygon fill="white" stroke="#666666" points="225,-216 150,-216 150,-197 225,-197 225,-216"/>
<text text-anchor="middle" x="187.5" y="-204" font-family="Helvetica,sans-Serif" font-size="10.00">new_dlopen</text>
</a>
</g>
</g>
<!-- Node1&#45;&gt;Node3 -->
<g id="edge2_Node000001_Node000003" class="edge">
<title>Node1&#45;&gt;Node3</title>
<g id="a_edge2_Node000001_Node000003"><a xlink:title=" ">
<path fill="none" stroke="#63b8ff" d="M78.47,-179.03C97.27,-183.81 120.22,-189.64 140.12,-194.71"/>
<polygon fill="#63b8ff" stroke="#63b8ff" points="139.36,-198.12 149.91,-197.2 141.08,-191.34 139.36,-198.12"/>
</a>
</g>
</g>
<!-- Node11 -->
<g id="Node000011" class="node">
<title>Node11</title>
<g id="a_Node000011"><a xlink:href="android__runtime__core_8cpp.html#a5d17a31991bfeab1ffd48bdcc55f3871" target="_top" xlink:title=" ">
<polygon fill="white" stroke="#666666" points="223.5,-179 151.5,-179 151.5,-160 223.5,-160 223.5,-179"/>
<text text-anchor="middle" x="187.5" y="-167" font-family="Helvetica,sans-Serif" font-size="10.00">new_dlsym</text>
</a>
</g>
</g>
<!-- Node1&#45;&gt;Node11 -->
<g id="edge10_Node000001_Node000011" class="edge">
<title>Node1&#45;&gt;Node11</title>
<g id="a_edge10_Node000001_Node000011"><a xlink:title=" ">
<path fill="none" stroke="#63b8ff" d="M80.37,-169.5C99.07,-169.5 121.51,-169.5 140.93,-169.5"/>
<polygon fill="#63b8ff" stroke="#63b8ff" points="141.07,-173 151.07,-169.5 141.07,-166 141.07,-173"/>
</a>
</g>
</g>
<!-- Node12 -->
<g id="Node000012" class="node">
<title>Node12</title>
<g id="a_Node000012"><a xlink:href="android__runtime__core_8cpp.html#a7df47e37fd55c553b8fd39cf996d786c" target="_top" xlink:title=" ">
<polygon fill="white" stroke="#666666" points="250,-84 125,-84 125,-65 250,-65 250,-84"/>
<text text-anchor="middle" x="187.5" y="-72" font-family="Helvetica,sans-Serif" font-size="10.00">setup_signal_handlers</text>
</a>
</g>
</g>
<!-- Node1&#45;&gt;Node12 -->
<g id="edge11_Node000001_Node000012" class="edge">
<title>Node1&#45;&gt;Node12</title>
<g id="a_edge11_Node000001_Node000012"><a xlink:title=" ">
<path fill="none" stroke="#63b8ff" d="M54.39,-159.87C69.27,-149.24 94.09,-131.76 116,-117.5 130.84,-107.84 147.77,-97.49 161.32,-89.37"/>
<polygon fill="#63b8ff" stroke="#63b8ff" points="163.3,-92.27 170.09,-84.14 159.71,-86.26 163.3,-92.27"/>
</a>
</g>
</g>
<!-- Node22 -->
<g id="Node000022" class="node">
<title>Node22</title>
<g id="a_Node000022"><a xlink:href="log_8c.html#a4b4c5cb4a19bc4c73b0640ca73f115e4" target="_top" xlink:title="初始化日志系统">
<polygon fill="white" stroke="#666666" points="396,-141 295,-141 295,-122 396,-122 396,-141"/>
<text text-anchor="middle" x="345.5" y="-129" font-family="Helvetica,sans-Serif" font-size="10.00">tefkernel_log_init</text>
</a>
</g>
</g>
<!-- Node1&#45;&gt;Node22 -->
<g id="edge21_Node000001_Node000022" class="edge">
<title>Node1&#45;&gt;Node22</title>
<g id="a_edge21_Node000001_Node000022"><a xlink:title=" ">
<path fill="none" stroke="#63b8ff" d="M73.61,-159.99C86.68,-156.51 101.96,-152.85 116,-150.5 172.76,-141.02 238.28,-136.19 284.57,-133.78"/>
<polygon fill="#63b8ff" stroke="#63b8ff" points="284.92,-137.26 294.73,-133.27 284.57,-130.27 284.92,-137.26"/>
</a>
</g>
</g>
<!-- Node4 -->
<g id="Node000004" class="node">
<title>Node4</title>
<g id="a_Node000004"><a xlink:href="android__runtime__core_8cpp.html#ab8341984406b4905c52be6920424e0a3" target="_top" xlink:title=" ">
<polygon fill="white" stroke="#666666" points="393.5,-292 297.5,-292 297.5,-273 393.5,-273 393.5,-292"/>
<text text-anchor="middle" x="345.5" y="-280" font-family="Helvetica,sans-Serif" font-size="10.00">hook_il2cpp_init</text>
</a>
</g>
</g>
<!-- Node3&#45;&gt;Node4 -->
<g id="edge3_Node000003_Node000004" class="edge">
<title>Node3&#45;&gt;Node4</title>
<g id="a_edge3_Node000003_Node000004"><a xlink:title=" ">
<path fill="none" stroke="#63b8ff" d="M225.15,-213.97C236.29,-216.88 248.38,-220.68 259,-225.5 283.21,-236.48 308.21,-253.99 324.87,-266.71"/>
<polygon fill="#63b8ff" stroke="#63b8ff" points="322.74,-269.48 332.78,-272.86 327.04,-263.96 322.74,-269.48"/>
</a>
</g>
</g>
<!-- Node5 -->
<g id="Node000005" class="node">
<title>Node5</title>
<g id="a_Node000005"><a xlink:href="android__runtime__core_8cpp.html#a35e658d0df46a9b6bbb36cdb360e30b6" target="_top" xlink:title=" ">
<polygon fill="white" stroke="#666666" points="592,-340.5 432,-340.5 432,-310.5 592,-310.5 592,-340.5"/>
<text text-anchor="start" x="440" y="-328.5" font-family="Helvetica,sans-Serif" font-size="10.00">find_and_initialize</text>
<text text-anchor="middle" x="512" y="-317.5" font-family="Helvetica,sans-Serif" font-size="10.00">_make_generic_method_impl</text>
</a>
</g>
</g>
<!-- Node4&#45;&gt;Node5 -->
<g id="edge4_Node000004_Node000005" class="edge">
<title>Node4&#45;&gt;Node5</title>
<g id="a_edge4_Node000004_Node000005"><a xlink:title=" ">
<path fill="none" stroke="#63b8ff" d="M383.01,-292.04C400.9,-296.72 423.03,-302.51 443.83,-307.94"/>
<polygon fill="#63b8ff" stroke="#63b8ff" points="443.03,-311.35 453.59,-310.49 444.8,-304.58 443.03,-311.35"/>
</a>
</g>
</g>
<!-- Node6 -->
<g id="Node000006" class="node">
<title>Node6</title>
<g id="a_Node000006"><a xlink:href="android__test_8cpp.html#a3af2ffc46c9ac06c9972dc521288afa0" target="_top" xlink:title=" ">
<polygon fill="white" stroke="#666666" points="543.5,-292 480.5,-292 480.5,-273 543.5,-273 543.5,-292"/>
<text text-anchor="middle" x="512" y="-280" font-family="Helvetica,sans-Serif" font-size="10.00">start_test</text>
</a>
</g>
</g>
<!-- Node4&#45;&gt;Node6 -->
<g id="edge5_Node000004_Node000006" class="edge">
<title>Node4&#45;&gt;Node6</title>
<g id="a_edge5_Node000004_Node000006"><a xlink:title=" ">
<path fill="none" stroke="#63b8ff" d="M393.64,-282.5C417.84,-282.5 447.04,-282.5 470.26,-282.5"/>
<polygon fill="#63b8ff" stroke="#63b8ff" points="470.47,-286 480.47,-282.5 470.47,-279 470.47,-286"/>
</a>
</g>
</g>
<!-- Node7 -->
<g id="Node000007" class="node">
<title>Node7</title>
<g id="a_Node000007"><a xlink:href="android__test_8cpp.html#ae0c684ef0736e64fbf8e06534e1d983a" target="_top" xlink:title=" ">
<polygon fill="white" stroke="#666666" points="805,-310 628,-310 628,-291 805,-291 805,-310"/>
<text text-anchor="middle" x="716.5" y="-298" font-family="Helvetica,sans-Serif" font-size="10.00">Initialize_AlmostEverything_post</text>
</a>
</g>
</g>
<!-- Node6&#45;&gt;Node7 -->
<g id="edge6_Node000006_Node000007" class="edge">
<title>Node6&#45;&gt;Node7</title>
<g id="a_edge6_Node000006_Node000007"><a xlink:title=" ">
<path fill="none" stroke="#63b8ff" d="M543.76,-285.23C563.67,-287 590.81,-289.42 617.63,-291.8"/>
<polygon fill="#63b8ff" stroke="#63b8ff" points="617.61,-295.31 627.88,-292.71 618.23,-288.34 617.61,-295.31"/>
</a>
</g>
</g>
<!-- Node8 -->
<g id="Node000008" class="node">
<title>Node8</title>
<g id="a_Node000008"><a xlink:href="android__test_8cpp.html#ab2d1facb8afe7135c3752e5524e12010" target="_top" xlink:title=" ">
<polygon fill="white" stroke="#666666" points="802.5,-273 630.5,-273 630.5,-254 802.5,-254 802.5,-273"/>
<text text-anchor="middle" x="716.5" y="-261" font-family="Helvetica,sans-Serif" font-size="10.00">Initialize_AlmostEverything_pre</text>
</a>
</g>
</g>
<!-- Node6&#45;&gt;Node8 -->
<g id="edge7_Node000006_Node000008" class="edge">
<title>Node6&#45;&gt;Node8</title>
<g id="a_edge7_Node000006_Node000008"><a xlink:title=" ">
<path fill="none" stroke="#63b8ff" d="M543.76,-279.61C564.25,-277.69 592.4,-275.05 619.98,-272.46"/>
<polygon fill="#63b8ff" stroke="#63b8ff" points="620.47,-275.93 630.1,-271.51 619.82,-268.96 620.47,-275.93"/>
</a>
</g>
</g>
<!-- Node9 -->
<g id="Node000009" class="node">
<title>Node9</title>
<g id="a_Node000009"><a xlink:href="android__test_8cpp.html#abc05b8483d8af22e9797b765145a30eb" target="_top" xlink:title=" ">
<polygon fill="white" stroke="#666666" points="976,-291 845,-291 845,-272 976,-272 976,-291"/>
<text text-anchor="middle" x="910.5" y="-279" font-family="Helvetica,sans-Serif" font-size="10.00">CreateAndFillTexture2D</text>
</a>
</g>
</g>
<!-- Node8&#45;&gt;Node9 -->
<g id="edge8_Node000008_Node000009" class="edge">
<title>Node8&#45;&gt;Node9</title>
<g id="a_edge8_Node000008_Node000009"><a xlink:title=" ">
<path fill="none" stroke="#63b8ff" d="M802.55,-271.47C813.35,-272.49 824.33,-273.52 834.94,-274.51"/>
<polygon fill="#63b8ff" stroke="#63b8ff" points="834.7,-278 844.98,-275.45 835.35,-271.03 834.7,-278"/>
</a>
</g>
</g>
<!-- Node10 -->
<g id="Node000010" class="node">
<title>Node10</title>
<g id="a_Node000010"><a xlink:href="android__test_8cpp.html#a96833db3464d2fd73c0adcf4c18355ff" target="_top" xlink:title=" ">
<polygon fill="white" stroke="#666666" points="964,-254 857,-254 857,-235 964,-235 964,-254"/>
<text text-anchor="middle" x="910.5" y="-242" font-family="Helvetica,sans-Serif" font-size="10.00">ExportTextureData</text>
</a>
</g>
</g>
<!-- Node8&#45;&gt;Node10 -->
<g id="edge9_Node000008_Node000010" class="edge">
<title>Node8&#45;&gt;Node10</title>
<g id="a_edge9_Node000008_Node000010"><a xlink:title=" ">
<path fill="none" stroke="#63b8ff" d="M802.55,-255.08C817.4,-253.61 832.61,-252.11 846.72,-250.71"/>
<polygon fill="#63b8ff" stroke="#63b8ff" points="847.18,-254.18 856.79,-249.72 846.49,-247.22 847.18,-254.18"/>
</a>
</g>
</g>
<!-- Node13 -->
<g id="Node000013" class="node">
<title>Node13</title>
<g id="a_Node000013"><a xlink:href="android__runtime__core_8cpp.html#a7d8219b35761d4e7ab12b4ccf3deadef" target="_top" xlink:title=" ">
<polygon fill="white" stroke="#666666" points="389.5,-46 301.5,-46 301.5,-27 389.5,-27 389.5,-46"/>
<text text-anchor="middle" x="345.5" y="-34" font-family="Helvetica,sans-Serif" font-size="10.00">signal_handler</text>
</a>
</g>
</g>
<!-- Node12&#45;&gt;Node13 -->
<g id="edge12_Node000012_Node000013" class="edge">
<title>Node12&#45;&gt;Node13</title>
<g id="a_edge12_Node000012_Node000013"><a xlink:title=" ">
<path fill="none" stroke="#63b8ff" d="M227.87,-64.91C248.45,-59.9 273.84,-53.71 295.67,-48.39"/>
<polygon fill="#63b8ff" stroke="#63b8ff" points="296.53,-51.79 305.42,-46.02 294.87,-44.99 296.53,-51.79"/>
</a>
</g>
</g>
<!-- Node14 -->
<g id="Node000014" class="node">
<title>Node14</title>
<g id="a_Node000014"><a xlink:href="log_8c.html#a0e55a37e3f059fb1512c59071164869e" target="_top" xlink:title="清理日志系统资源">
<polygon fill="white" stroke="#666666" points="574,-27 450,-27 450,-8 574,-8 574,-27"/>
<text text-anchor="middle" x="512" y="-15" font-family="Helvetica,sans-Serif" font-size="10.00">tefkernel_log_cleanup</text>
</a>
</g>
</g>
<!-- Node13&#45;&gt;Node14 -->
<g id="edge13_Node000013_Node000014" class="edge">
<title>Node13&#45;&gt;Node14</title>
<g id="a_edge13_Node000013_Node000014"><a xlink:title=" ">
<path fill="none" stroke="#63b8ff" d="M389.72,-31.51C405.08,-29.73 422.8,-27.69 439.87,-25.72"/>
<polygon fill="#63b8ff" stroke="#63b8ff" points="440.29,-29.19 449.82,-24.57 439.49,-22.24 440.29,-29.19"/>
</a>
</g>
</g>
<!-- Node15 -->
<g id="Node000015" class="node">
<title>Node15</title>
<g id="a_Node000015"><a xlink:href="log_8c.html#a297178e8a813f0c2e17c031d98cd448e" target="_top" xlink:title=" ">
<polygon fill="white" stroke="#666666" points="764.5,-19 668.5,-19 668.5,0 764.5,0 764.5,-19"/>
<text text-anchor="middle" x="716.5" y="-7" font-family="Helvetica,sans-Serif" font-size="10.00">log_queue_clear</text>
</a>
</g>
</g>
<!-- Node14&#45;&gt;Node15 -->
<g id="edge14_Node000014_Node000015" class="edge">
<title>Node14&#45;&gt;Node15</title>
<g id="a_edge14_Node000014_Node000015"><a xlink:title=" ">
<path fill="none" stroke="#63b8ff" d="M574.03,-15.09C600.76,-14.03 631.96,-12.8 658.24,-11.76"/>
<polygon fill="#63b8ff" stroke="#63b8ff" points="658.57,-15.25 668.43,-11.36 658.3,-8.26 658.57,-15.25"/>
</a>
</g>
</g>
<!-- Node16 -->
<g id="Node000016" class="node">
<title>Node16</title>
<g id="a_Node000016"><a xlink:href="log_8c.html#a1c23c08040f71be5425ad450c5de4c14" target="_top" xlink:title=" ">
<polygon fill="white" stroke="#666666" points="771,-56 662,-56 662,-37 771,-37 771,-56"/>
<text text-anchor="middle" x="716.5" y="-44" font-family="Helvetica,sans-Serif" font-size="10.00">log_queue_destroy</text>
</a>
</g>
</g>
<!-- Node14&#45;&gt;Node16 -->
<g id="edge15_Node000014_Node000016" class="edge">
<title>Node14&#45;&gt;Node16</title>
<g id="a_edge15_Node000014_Node000016"><a xlink:title=" ">
<path fill="none" stroke="#63b8ff" d="M574.03,-26.24C598.6,-29.76 626.93,-33.82 651.76,-37.37"/>
<polygon fill="#63b8ff" stroke="#63b8ff" points="651.41,-40.86 661.81,-38.81 652.4,-33.93 651.41,-40.86"/>
</a>
</g>
</g>
<!-- Node17 -->
<g id="Node000017" class="node">
<title>Node17</title>
<g id="a_Node000017"><a xlink:href="log_8c.html#ab2a186a7ea4ea47dd0d65078ddcf1c50" target="_top" xlink:title=" ">
<polygon fill="white" stroke="#666666" points="771.5,-93 661.5,-93 661.5,-74 771.5,-74 771.5,-93"/>
<text text-anchor="middle" x="716.5" y="-81" font-family="Helvetica,sans-Serif" font-size="10.00">tefkernel_log_write</text>
</a>
</g>
</g>
<!-- Node14&#45;&gt;Node17 -->
<g id="edge16_Node000014_Node000017" class="edge">
<title>Node14&#45;&gt;Node17</title>
<g id="a_edge16_Node000014_Node000017"><a xlink:title=" ">
<path fill="none" stroke="#63b8ff" d="M533.38,-27.1C556.06,-37.48 594.01,-53.95 628,-64.5 636.41,-67.11 645.39,-69.5 654.27,-71.63"/>
<polygon fill="#63b8ff" stroke="#63b8ff" points="653.68,-75.09 664.21,-73.93 655.26,-68.27 653.68,-75.09"/>
</a>
</g>
</g>
<!-- Node18 -->
<g id="Node000018" class="node">
<title>Node18</title>
<g id="a_Node000018"><a xlink:href="log_8c.html#a0e1141c4ee0b9bc63987f55b488d92bf" target="_top" xlink:title=" ">
<polygon fill="white" stroke="#666666" points="956,-142 865,-142 865,-123 956,-123 956,-142"/>
<text text-anchor="middle" x="910.5" y="-130" font-family="Helvetica,sans-Serif" font-size="10.00">console_output</text>
</a>
</g>
</g>
<!-- Node17&#45;&gt;Node18 -->
<g id="edge17_Node000017_Node000018" class="edge">
<title>Node17&#45;&gt;Node18</title>
<g id="a_edge17_Node000017_Node000018"><a xlink:title=" ">
<path fill="none" stroke="#63b8ff" d="M764.9,-93.04C777.94,-95.87 792.06,-99.13 805,-102.5 821.19,-106.72 824.94,-108.82 841,-113.5 848.58,-115.71 856.65,-118 864.49,-120.2"/>
<polygon fill="#63b8ff" stroke="#63b8ff" points="863.68,-123.6 874.25,-122.91 865.55,-116.86 863.68,-123.6"/>
</a>
</g>
</g>
<!-- Node19 -->
<g id="Node000019" class="node">
<title>Node19</title>
<g id="a_Node000019"><a xlink:href="log_8c.html#a1fdaa680ee19962f59d42fbfe4bc3ce0" target="_top" xlink:title=" ">
<polygon fill="white" stroke="#666666" points="980,-216 841,-216 841,-197 980,-197 980,-216"/>
<text text-anchor="middle" x="910.5" y="-204" font-family="Helvetica,sans-Serif" font-size="10.00">get_current_time_for_log</text>
</a>
</g>
</g>
<!-- Node17&#45;&gt;Node19 -->
<g id="edge18_Node000017_Node000019" class="edge">
<title>Node17&#45;&gt;Node19</title>
<g id="a_edge18_Node000017_Node000019"><a xlink:title=" ">
<path fill="none" stroke="#63b8ff" d="M771.58,-86.95C783.59,-89.86 795.54,-94.66 805,-102.5 836.59,-128.68 810.17,-160.44 841,-187.5 842.95,-189.21 845.04,-190.77 847.23,-192.18"/>
<polygon fill="#63b8ff" stroke="#63b8ff" points="845.68,-195.32 856.14,-196.99 849,-189.16 845.68,-195.32"/>
</a>
</g>
</g>
<!-- Node20 -->
<g id="Node000020" class="node">
<title>Node20</title>
<g id="a_Node000020"><a xlink:href="log_8c.html#a06a2ce6a6a8a2b3b4ba940addbfb0807" target="_top" xlink:title=" ">
<polygon fill="white" stroke="#666666" points="958,-105 863,-105 863,-86 958,-86 958,-105"/>
<text text-anchor="middle" x="910.5" y="-93" font-family="Helvetica,sans-Serif" font-size="10.00">get_level_string</text>
</a>
</g>
</g>
<!-- Node17&#45;&gt;Node20 -->
<g id="edge19_Node000017_Node000020" class="edge">
<title>Node17&#45;&gt;Node20</title>
<g id="a_edge19_Node000017_Node000020"><a xlink:title=" ">
<path fill="none" stroke="#63b8ff" d="M771.75,-86.89C796.99,-88.47 827.02,-90.34 852.59,-91.94"/>
<polygon fill="#63b8ff" stroke="#63b8ff" points="852.68,-95.46 862.87,-92.59 853.11,-88.47 852.68,-95.46"/>
</a>
</g>
</g>
<!-- Node21 -->
<g id="Node000021" class="node">
<title>Node21</title>
<g id="a_Node000021"><a xlink:href="log_8c.html#a024d90c20dedc91eb03b26bb425da982" target="_top" xlink:title=" ">
<polygon fill="white" stroke="#666666" points="958,-68 863,-68 863,-49 958,-49 958,-68"/>
<text text-anchor="middle" x="910.5" y="-56" font-family="Helvetica,sans-Serif" font-size="10.00">log_queue_push</text>
</a>
</g>
</g>
<!-- Node17&#45;&gt;Node21 -->
<g id="edge20_Node000017_Node000021" class="edge">
<title>Node17&#45;&gt;Node21</title>
<g id="a_edge20_Node000017_Node000021"><a xlink:title=" ">
<path fill="none" stroke="#63b8ff" d="M771.75,-76.44C797.1,-73.13 827.29,-69.2 852.93,-65.87"/>
<polygon fill="#63b8ff" stroke="#63b8ff" points="853.41,-69.33 862.87,-64.57 852.51,-62.39 853.41,-69.33"/>
</a>
</g>
</g>
<!-- Node22&#45;&gt;Node14 -->
<g id="edge32_Node000022_Node000014" class="edge">
<title>Node22&#45;&gt;Node14</title>
<g id="a_edge32_Node000022_Node000014"><a xlink:title=" ">
<path fill="none" stroke="#63b8ff" d="M353.05,-121.8C365.98,-103.41 396.6,-63.35 432,-41.5 439.28,-37.01 447.45,-33.31 455.71,-30.27"/>
<polygon fill="#63b8ff" stroke="#63b8ff" points="457.04,-33.52 465.4,-27.01 454.8,-26.88 457.04,-33.52"/>
</a>
</g>
</g>
<!-- Node22&#45;&gt;Node16 -->
<g id="edge25_Node000022_Node000016" class="edge">
<title>Node22&#45;&gt;Node16</title>
<g id="a_edge25_Node000022_Node000016"><a xlink:title=" ">
<path fill="none" stroke="#63b8ff" d="M362.63,-121.99C379.39,-112.54 406.68,-98.35 432,-90.5 505.49,-67.72 593.52,-56.41 651.78,-51.02"/>
<polygon fill="#63b8ff" stroke="#63b8ff" points="652.29,-54.49 661.94,-50.12 651.67,-47.52 652.29,-54.49"/>
</a>
</g>
</g>
<!-- Node22&#45;&gt;Node17 -->
<g id="edge33_Node000022_Node000017" class="edge">
<title>Node22&#45;&gt;Node17</title>
<g id="a_edge33_Node000022_Node000017"><a xlink:title=" ">
<path fill="none" stroke="#63b8ff" d="M385.05,-121.93C399.68,-118.56 416.54,-115 432,-112.5 506.87,-100.39 593.73,-92.39 651.37,-87.91"/>
<polygon fill="#63b8ff" stroke="#63b8ff" points="651.73,-91.4 661.43,-87.14 651.2,-84.42 651.73,-91.4"/>
</a>
</g>
</g>
<!-- Node22&#45;&gt;Node19 -->
<g id="edge24_Node000022_Node000019" class="edge">
<title>Node22&#45;&gt;Node19</title>
<g id="a_edge24_Node000022_Node000019"><a xlink:title=" ">
<path fill="none" stroke="#63b8ff" d="M362.55,-141.14C379.26,-150.65 406.5,-164.73 432,-171.5 568.81,-207.82 734.9,-211.31 830.78,-209.57"/>
<polygon fill="#63b8ff" stroke="#63b8ff" points="831.05,-213.07 840.98,-209.36 830.91,-206.07 831.05,-213.07"/>
</a>
</g>
</g>
<!-- Node23 -->
<g id="Node000023" class="node">
<title>Node23</title>
<g id="a_Node000023"><a xlink:href="log_8c.html#a0521af9aec2282f5b1522fde335243e0" target="_top" xlink:title=" ">
<polygon fill="white" stroke="#666666" points="566,-141 458,-141 458,-122 566,-122 566,-141"/>
<text text-anchor="middle" x="512" y="-129" font-family="Helvetica,sans-Serif" font-size="10.00">generate_filename</text>
</a>
</g>
</g>
<!-- Node22&#45;&gt;Node23 -->
<g id="edge22_Node000022_Node000023" class="edge">
<title>Node22&#45;&gt;Node23</title>
<g id="a_edge22_Node000022_Node000023"><a xlink:title=" ">
<path fill="none" stroke="#63b8ff" d="M396.3,-131.5C412.43,-131.5 430.55,-131.5 447.54,-131.5"/>
<polygon fill="#63b8ff" stroke="#63b8ff" points="447.94,-135 457.94,-131.5 447.94,-128 447.94,-135"/>
</a>
</g>
</g>
<!-- Node25 -->
<g id="Node000025" class="node">
<title>Node25</title>
<g id="a_Node000025"><a xlink:href="log_8c.html#abfb4bc55efbdf797fd28c3316af6e974" target="_top" xlink:title=" ">
<polygon fill="white" stroke="#666666" points="556,-255 468,-255 468,-236 556,-236 556,-255"/>
<text text-anchor="middle" x="512" y="-243" font-family="Helvetica,sans-Serif" font-size="10.00">log_queue_init</text>
</a>
</g>
</g>
<!-- Node22&#45;&gt;Node25 -->
<g id="edge26_Node000022_Node000025" class="edge">
<title>Node22&#45;&gt;Node25</title>
<g id="a_edge26_Node000022_Node000025"><a xlink:title=" ">
<path fill="none" stroke="#63b8ff" d="M353.05,-141.2C365.98,-159.59 396.6,-199.65 432,-221.5 439.97,-226.42 449.02,-230.39 458.08,-233.58"/>
<polygon fill="#63b8ff" stroke="#63b8ff" points="457.27,-237 467.87,-236.74 459.42,-230.34 457.27,-237"/>
</a>
</g>
</g>
<!-- Node26 -->
<g id="Node000026" class="node">
<title>Node26</title>
<g id="a_Node000026"><a xlink:href="log_8c.html#a8cd98c0dcd03a66bfbb0cd16f4b27143" target="_top" xlink:title=" ">
<polygon fill="white" stroke="#666666" points="750.5,-179 682.5,-179 682.5,-160 750.5,-160 750.5,-179"/>
<text text-anchor="middle" x="716.5" y="-167" font-family="Helvetica,sans-Serif" font-size="10.00">log_thread</text>
</a>
</g>
</g>
<!-- Node22&#45;&gt;Node26 -->
<g id="edge27_Node000022_Node000026" class="edge">
<title>Node22&#45;&gt;Node26</title>
<g id="a_edge27_Node000022_Node000026"><a xlink:title=" ">
<path fill="none" stroke="#63b8ff" d="M386.32,-141.07C400.64,-144.19 416.98,-147.4 432,-149.5 516.47,-161.31 616.12,-166.29 671.94,-168.28"/>
<polygon fill="#63b8ff" stroke="#63b8ff" points="672.06,-171.79 682.17,-168.63 672.3,-164.79 672.06,-171.79"/>
</a>
</g>
</g>
<!-- Node24 -->
<g id="Node000024" class="node">
<title>Node24</title>
<g id="a_Node000024"><a xlink:href="log_8c.html#a9c2347a62c8012dae469407c32e475af" target="_top" xlink:title=" ">
<polygon fill="white" stroke="#666666" points="776,-141.5 657,-141.5 657,-111.5 776,-111.5 776,-141.5"/>
<text text-anchor="start" x="665" y="-129.5" font-family="Helvetica,sans-Serif" font-size="10.00">get_current_time_for</text>
<text text-anchor="middle" x="716.5" y="-118.5" font-family="Helvetica,sans-Serif" font-size="10.00">_filename</text>
</a>
</g>
</g>
<!-- Node23&#45;&gt;Node24 -->
<g id="edge23_Node000023_Node000024" class="edge">
<title>Node23&#45;&gt;Node24</title>
<g id="a_edge23_Node000023_Node000024"><a xlink:title=" ">
<path fill="none" stroke="#63b8ff" d="M566.2,-130.19C590.83,-129.58 620.38,-128.85 646.67,-128.2"/>
<polygon fill="#63b8ff" stroke="#63b8ff" points="647.04,-131.69 656.95,-127.95 646.87,-124.69 647.04,-131.69"/>
</a>
</g>
</g>
<!-- Node26&#45;&gt;Node18 -->
<g id="edge28_Node000026_Node000018" class="edge">
<title>Node26&#45;&gt;Node18</title>
<g id="a_edge28_Node000026_Node000018"><a xlink:title=" ">
<path fill="none" stroke="#63b8ff" d="M750.51,-163.14C779.07,-157.63 820.96,-149.56 854.58,-143.08"/>
<polygon fill="#63b8ff" stroke="#63b8ff" points="855.56,-146.46 864.72,-141.13 854.24,-139.59 855.56,-146.46"/>
</a>
</g>
</g>
<!-- Node26&#45;&gt;Node19 -->
<g id="edge29_Node000026_Node000019" class="edge">
<title>Node26&#45;&gt;Node19</title>
<g id="a_edge29_Node000026_Node000019"><a xlink:title=" ">
<path fill="none" stroke="#63b8ff" d="M750.51,-175.86C777.81,-181.12 817.29,-188.73 850.07,-195.05"/>
<polygon fill="#63b8ff" stroke="#63b8ff" points="849.53,-198.51 860.01,-196.96 850.85,-191.63 849.53,-198.51"/>
</a>
</g>
</g>
<!-- Node26&#45;&gt;Node20 -->
<g id="edge30_Node000026_Node000020" class="edge">
<title>Node26&#45;&gt;Node20</title>
<g id="a_edge30_Node000026_Node000020"><a xlink:title=" ">
<path fill="none" stroke="#63b8ff" d="M750.69,-166.89C767.77,-164.45 788.42,-159.7 805,-150.5 825.06,-139.37 821.18,-125.06 841,-113.5 844.87,-111.24 849.02,-109.26 853.3,-107.53"/>
<polygon fill="#63b8ff" stroke="#63b8ff" points="854.59,-110.79 862.81,-104.11 852.22,-104.2 854.59,-110.79"/>
</a>
</g>
</g>
<!-- Node27 -->
<g id="Node000027" class="node">
<title>Node27</title>
<g id="a_Node000027"><a xlink:href="log_8c.html#afdc211ae054bee7e384becdba4e87c0d" target="_top" xlink:title=" ">
<polygon fill="white" stroke="#666666" points="964,-179 857,-179 857,-160 964,-160 964,-179"/>
<text text-anchor="middle" x="910.5" y="-167" font-family="Helvetica,sans-Serif" font-size="10.00">log_queue_pop_all</text>
</a>
</g>
</g>
<!-- Node26&#45;&gt;Node27 -->
<g id="edge31_Node000026_Node000027" class="edge">
<title>Node26&#45;&gt;Node27</title>
<g id="a_edge31_Node000026_Node000027"><a xlink:title=" ">
<path fill="none" stroke="#63b8ff" d="M750.51,-169.5C776.82,-169.5 814.44,-169.5 846.48,-169.5"/>
<polygon fill="#63b8ff" stroke="#63b8ff" points="846.67,-173 856.67,-169.5 846.67,-166 846.67,-173"/>
</a>
</g>
</g>
</g>
</svg>
