<?xml version="1.0" encoding="UTF-8" standalone="no"?>
<!DOCTYPE svg PUBLIC "-//W3C//DTD SVG 1.1//EN"
 "http://www.w3.org/Graphics/SVG/1.1/DTD/svg11.dtd">
<!-- Generated by graphviz version 2.42.4 (0)
 -->
<!-- Title: new_dlopen Pages: 1 -->
<svg width="791pt" height="112pt"
 viewBox="0.00 0.00 791.00 111.50" xmlns="http://www.w3.org/2000/svg" xmlns:xlink="http://www.w3.org/1999/xlink">
<g id="graph0" class="graph" transform="scale(1 1) rotate(0) translate(4 107.5)">
<title>new_dlopen</title>
<!-- Node1 -->
<g id="Node000001" class="node">
<title>Node1</title>
<g id="a_Node000001"><a xlink:title=" ">
<polygon fill="#999999" stroke="#666666" points="75,-76 0,-76 0,-57 75,-57 75,-76"/>
<text text-anchor="middle" x="37.5" y="-64" font-family="Helvetica,sans-Serif" font-size="10.00">new_dlopen</text>
</a>
</g>
</g>
<!-- Node2 -->
<g id="Node000002" class="node">
<title>Node2</title>
<g id="a_Node000002"><a xlink:href="android__runtime__core_8cpp.html#ab8341984406b4905c52be6920424e0a3" target="_top" xlink:title=" ">
<polygon fill="white" stroke="#666666" points="207,-76 111,-76 111,-57 207,-57 207,-76"/>
<text text-anchor="middle" x="159" y="-64" font-family="Helvetica,sans-Serif" font-size="10.00">hook_il2cpp_init</text>
</a>
</g>
</g>
<!-- Node1&#45;&gt;Node2 -->
<g id="edge1_Node000001_Node000002" class="edge">
<title>Node1&#45;&gt;Node2</title>
<g id="a_edge1_Node000001_Node000002"><a xlink:title=" ">
<path fill="none" stroke="#63b8ff" d="M75,-66.5C83.09,-66.5 91.86,-66.5 100.56,-66.5"/>
<polygon fill="#63b8ff" stroke="#63b8ff" points="100.7,-70 110.7,-66.5 100.7,-63 100.7,-70"/>
</a>
</g>
</g>
<!-- Node3 -->
<g id="Node000003" class="node">
<title>Node3</title>
<g id="a_Node000003"><a xlink:href="android__runtime__core_8cpp.html#a35e658d0df46a9b6bbb36cdb360e30b6" target="_top" xlink:title=" ">
<polygon fill="white" stroke="#666666" points="403,-103.5 243,-103.5 243,-73.5 403,-73.5 403,-103.5"/>
<text text-anchor="start" x="251" y="-91.5" font-family="Helvetica,sans-Serif" font-size="10.00">find_and_initialize</text>
<text text-anchor="middle" x="323" y="-80.5" font-family="Helvetica,sans-Serif" font-size="10.00">_make_generic_method_impl</text>
</a>
</g>
</g>
<!-- Node2&#45;&gt;Node3 -->
<g id="edge2_Node000002_Node000003" class="edge">
<title>Node2&#45;&gt;Node3</title>
<g id="a_edge2_Node000002_Node000003"><a xlink:title=" ">
<path fill="none" stroke="#63b8ff" d="M207.29,-72.92C215.44,-74.03 224.13,-75.21 232.96,-76.41"/>
<polygon fill="#63b8ff" stroke="#63b8ff" points="232.57,-79.89 242.95,-77.76 233.51,-72.95 232.57,-79.89"/>
</a>
</g>
</g>
<!-- Node4 -->
<g id="Node000004" class="node">
<title>Node4</title>
<g id="a_Node000004"><a xlink:href="android__test_8cpp.html#a3af2ffc46c9ac06c9972dc521288afa0" target="_top" xlink:title=" ">
<polygon fill="white" stroke="#666666" points="354.5,-55 291.5,-55 291.5,-36 354.5,-36 354.5,-55"/>
<text text-anchor="middle" x="323" y="-43" font-family="Helvetica,sans-Serif" font-size="10.00">start_test</text>
</a>
</g>
</g>
<!-- Node2&#45;&gt;Node4 -->
<g id="edge3_Node000002_Node000004" class="edge">
<title>Node2&#45;&gt;Node4</title>
<g id="a_edge3_Node000002_Node000004"><a xlink:title=" ">
<path fill="none" stroke="#63b8ff" d="M207.29,-60.37C230.67,-57.34 258.61,-53.72 281.07,-50.81"/>
<polygon fill="#63b8ff" stroke="#63b8ff" points="281.81,-54.24 291.28,-49.48 280.91,-47.3 281.81,-54.24"/>
</a>
</g>
</g>
<!-- Node5 -->
<g id="Node000005" class="node">
<title>Node5</title>
<g id="a_Node000005"><a xlink:href="android__test_8cpp.html#ae0c684ef0736e64fbf8e06534e1d983a" target="_top" xlink:title=" ">
<polygon fill="white" stroke="#666666" points="616,-74 439,-74 439,-55 616,-55 616,-74"/>
<text text-anchor="middle" x="527.5" y="-62" font-family="Helvetica,sans-Serif" font-size="10.00">Initialize_AlmostEverything_post</text>
</a>
</g>
</g>
<!-- Node4&#45;&gt;Node5 -->
<g id="edge4_Node000004_Node000005" class="edge">
<title>Node4&#45;&gt;Node5</title>
<g id="a_edge4_Node000004_Node000005"><a xlink:title=" ">
<path fill="none" stroke="#63b8ff" d="M354.76,-48.39C374.67,-50.25 401.81,-52.8 428.63,-55.32"/>
<polygon fill="#63b8ff" stroke="#63b8ff" points="428.6,-58.83 438.88,-56.28 429.25,-51.86 428.6,-58.83"/>
</a>
</g>
</g>
<!-- Node6 -->
<g id="Node000006" class="node">
<title>Node6</title>
<g id="a_Node000006"><a xlink:href="android__test_8cpp.html#ab2d1facb8afe7135c3752e5524e12010" target="_top" xlink:title=" ">
<polygon fill="white" stroke="#666666" points="613.5,-37 441.5,-37 441.5,-18 613.5,-18 613.5,-37"/>
<text text-anchor="middle" x="527.5" y="-25" font-family="Helvetica,sans-Serif" font-size="10.00">Initialize_AlmostEverything_pre</text>
</a>
</g>
</g>
<!-- Node4&#45;&gt;Node6 -->
<g id="edge5_Node000004_Node000006" class="edge">
<title>Node4&#45;&gt;Node6</title>
<g id="a_edge5_Node000004_Node000006"><a xlink:title=" ">
<path fill="none" stroke="#63b8ff" d="M354.76,-42.77C375.25,-40.94 403.4,-38.44 430.98,-35.99"/>
<polygon fill="#63b8ff" stroke="#63b8ff" points="431.45,-39.46 441.1,-35.09 430.83,-32.49 431.45,-39.46"/>
</a>
</g>
</g>
<!-- Node7 -->
<g id="Node000007" class="node">
<title>Node7</title>
<g id="a_Node000007"><a xlink:href="android__test_8cpp.html#abc05b8483d8af22e9797b765145a30eb" target="_top" xlink:title=" ">
<polygon fill="white" stroke="#666666" points="783,-56 652,-56 652,-37 783,-37 783,-56"/>
<text text-anchor="middle" x="717.5" y="-44" font-family="Helvetica,sans-Serif" font-size="10.00">CreateAndFillTexture2D</text>
</a>
</g>
</g>
<!-- Node6&#45;&gt;Node7 -->
<g id="edge6_Node000006_Node000007" class="edge">
<title>Node6&#45;&gt;Node7</title>
<g id="a_edge6_Node000006_Node000007"><a xlink:title=" ">
<path fill="none" stroke="#63b8ff" d="M613.7,-36.11C623.02,-37.05 632.45,-38.01 641.63,-38.93"/>
<polygon fill="#63b8ff" stroke="#63b8ff" points="641.57,-42.44 651.87,-39.97 642.27,-35.48 641.57,-42.44"/>
</a>
</g>
</g>
<!-- Node8 -->
<g id="Node000008" class="node">
<title>Node8</title>
<g id="a_Node000008"><a xlink:href="android__test_8cpp.html#a96833db3464d2fd73c0adcf4c18355ff" target="_top" xlink:title=" ">
<polygon fill="white" stroke="#666666" points="771,-19 664,-19 664,0 771,0 771,-19"/>
<text text-anchor="middle" x="717.5" y="-7" font-family="Helvetica,sans-Serif" font-size="10.00">ExportTextureData</text>
</a>
</g>
</g>
<!-- Node6&#45;&gt;Node8 -->
<g id="edge7_Node000006_Node000008" class="edge">
<title>Node6&#45;&gt;Node8</title>
<g id="a_edge7_Node000006_Node000008"><a xlink:title=" ">
<path fill="none" stroke="#63b8ff" d="M613.7,-19.34C627.19,-18.05 640.93,-16.74 653.78,-15.5"/>
<polygon fill="#63b8ff" stroke="#63b8ff" points="654.26,-18.98 663.88,-14.54 653.59,-12.01 654.26,-18.98"/>
</a>
</g>
</g>
</g>
</svg>
