<?xml version="1.0" encoding="UTF-8" standalone="no"?>
<!DOCTYPE svg PUBLIC "-//W3C//DTD SVG 1.1//EN"
 "http://www.w3.org/Graphics/SVG/1.1/DTD/svg11.dtd">
<!-- Generated by graphviz version 2.42.4 (0)
 -->
<!-- Title: init_tefkernel Pages: 1 -->
<svg width="716pt" height="266pt"
 viewBox="0.00 0.00 716.00 265.50" xmlns="http://www.w3.org/2000/svg" xmlns:xlink="http://www.w3.org/1999/xlink">
<g id="graph0" class="graph" transform="scale(1 1) rotate(0) translate(4 261.5)">
<title>init_tefkernel</title>
<!-- Node1 -->
<g id="Node000001" class="node">
<title>Node1</title>
<g id="a_Node000001"><a xlink:title=" ">
<polygon fill="#999999" stroke="#666666" points="81,-133 0,-133 0,-114 81,-114 81,-133"/>
<text text-anchor="middle" x="40.5" y="-121" font-family="Helvetica,sans-Serif" font-size="10.00">init_tefkernel</text>
</a>
</g>
</g>
<!-- Node2 -->
<g id="Node000002" class="node">
<title>Node2</title>
<g id="a_Node000002"><a xlink:href="log_8c.html#a4b4c5cb4a19bc4c73b0640ca73f115e4" target="_top" xlink:title="初始化日志系统">
<polygon fill="white" stroke="#666666" points="218,-133 117,-133 117,-114 218,-114 218,-133"/>
<text text-anchor="middle" x="167.5" y="-121" font-family="Helvetica,sans-Serif" font-size="10.00">tefkernel_log_init</text>
</a>
</g>
</g>
<!-- Node1&#45;&gt;Node2 -->
<g id="edge1_Node000001_Node000002" class="edge">
<title>Node1&#45;&gt;Node2</title>
<g id="a_edge1_Node000001_Node000002"><a xlink:title=" ">
<path fill="none" stroke="#63b8ff" d="M81.05,-123.5C89.17,-123.5 97.9,-123.5 106.55,-123.5"/>
<polygon fill="#63b8ff" stroke="#63b8ff" points="106.65,-127 116.65,-123.5 106.65,-120 106.65,-127"/>
</a>
</g>
</g>
<!-- Node3 -->
<g id="Node000003" class="node">
<title>Node3</title>
<g id="a_Node000003"><a xlink:href="log_8c.html#a0521af9aec2282f5b1522fde335243e0" target="_top" xlink:title=" ">
<polygon fill="white" stroke="#666666" points="370,-250 262,-250 262,-231 370,-231 370,-250"/>
<text text-anchor="middle" x="316" y="-238" font-family="Helvetica,sans-Serif" font-size="10.00">generate_filename</text>
</a>
</g>
</g>
<!-- Node2&#45;&gt;Node3 -->
<g id="edge2_Node000002_Node000003" class="edge">
<title>Node2&#45;&gt;Node3</title>
<g id="a_edge2_Node000002_Node000003"><a xlink:title=" ">
<path fill="none" stroke="#63b8ff" d="M175.52,-133.09C188.99,-150.96 220.18,-189.66 254,-213.5 261.36,-218.69 269.87,-223.21 278.17,-227"/>
<polygon fill="#63b8ff" stroke="#63b8ff" points="276.79,-230.22 287.36,-230.96 279.56,-223.79 276.79,-230.22"/>
</a>
</g>
</g>
<!-- Node5 -->
<g id="Node000005" class="node">
<title>Node5</title>
<g id="a_Node000005"><a xlink:href="log_8c.html#a1fdaa680ee19962f59d42fbfe4bc3ce0" target="_top" xlink:title=" ">
<polygon fill="white" stroke="#666666" points="708,-207 569,-207 569,-188 708,-188 708,-207"/>
<text text-anchor="middle" x="638.5" y="-195" font-family="Helvetica,sans-Serif" font-size="10.00">get_current_time_for_log</text>
</a>
</g>
</g>
<!-- Node2&#45;&gt;Node5 -->
<g id="edge4_Node000002_Node000005" class="edge">
<title>Node2&#45;&gt;Node5</title>
<g id="a_edge4_Node000002_Node000005"><a xlink:title=" ">
<path fill="none" stroke="#63b8ff" d="M187.71,-133C204.73,-141.02 230.46,-152.17 254,-158.5 356.83,-186.14 479.98,-194.49 558.46,-196.85"/>
<polygon fill="#63b8ff" stroke="#63b8ff" points="558.67,-200.35 568.76,-197.13 558.86,-193.36 558.67,-200.35"/>
</a>
</g>
</g>
<!-- Node6 -->
<g id="Node000006" class="node">
<title>Node6</title>
<g id="a_Node000006"><a xlink:href="log_8c.html#a1c23c08040f71be5425ad450c5de4c14" target="_top" xlink:title=" ">
<polygon fill="white" stroke="#666666" points="528,-58 419,-58 419,-39 528,-39 528,-58"/>
<text text-anchor="middle" x="473.5" y="-46" font-family="Helvetica,sans-Serif" font-size="10.00">log_queue_destroy</text>
</a>
</g>
</g>
<!-- Node2&#45;&gt;Node6 -->
<g id="edge5_Node000002_Node000006" class="edge">
<title>Node2&#45;&gt;Node6</title>
<g id="a_edge5_Node000002_Node000006"><a xlink:title=" ">
<path fill="none" stroke="#63b8ff" d="M179.16,-113.95C194.48,-100.87 224.15,-77.83 254,-67.5 304.07,-50.16 364.27,-46.06 408.79,-45.93"/>
<polygon fill="#63b8ff" stroke="#63b8ff" points="408.89,-49.43 418.9,-45.96 408.91,-42.43 408.89,-49.43"/>
</a>
</g>
</g>
<!-- Node7 -->
<g id="Node000007" class="node">
<title>Node7</title>
<g id="a_Node000007"><a xlink:href="log_8c.html#abfb4bc55efbdf797fd28c3316af6e974" target="_top" xlink:title=" ">
<polygon fill="white" stroke="#666666" points="360,-19 272,-19 272,0 360,0 360,-19"/>
<text text-anchor="middle" x="316" y="-7" font-family="Helvetica,sans-Serif" font-size="10.00">log_queue_init</text>
</a>
</g>
</g>
<!-- Node2&#45;&gt;Node7 -->
<g id="edge6_Node000002_Node000007" class="edge">
<title>Node2&#45;&gt;Node7</title>
<g id="a_edge6_Node000002_Node000007"><a xlink:title=" ">
<path fill="none" stroke="#63b8ff" d="M175.43,-113.77C188.75,-95.69 219.68,-56.62 254,-33.5 260.03,-29.43 266.86,-25.9 273.7,-22.89"/>
<polygon fill="#63b8ff" stroke="#63b8ff" points="275.04,-26.13 282.98,-19.11 272.4,-19.64 275.04,-26.13"/>
</a>
</g>
</g>
<!-- Node8 -->
<g id="Node000008" class="node">
<title>Node8</title>
<g id="a_Node000008"><a xlink:href="log_8c.html#a8cd98c0dcd03a66bfbb0cd16f4b27143" target="_top" xlink:title=" ">
<polygon fill="white" stroke="#666666" points="507.5,-171 439.5,-171 439.5,-152 507.5,-152 507.5,-171"/>
<text text-anchor="middle" x="473.5" y="-159" font-family="Helvetica,sans-Serif" font-size="10.00">log_thread</text>
</a>
</g>
</g>
<!-- Node2&#45;&gt;Node8 -->
<g id="edge7_Node000002_Node000008" class="edge">
<title>Node2&#45;&gt;Node8</title>
<g id="a_edge7_Node000002_Node000008"><a xlink:title=" ">
<path fill="none" stroke="#63b8ff" d="M218.17,-132.09C229.9,-133.99 242.38,-135.91 254,-137.5 314.73,-145.8 385.27,-153.13 429.4,-157.45"/>
<polygon fill="#63b8ff" stroke="#63b8ff" points="429.2,-160.94 439.49,-158.42 429.87,-153.97 429.2,-160.94"/>
</a>
</g>
</g>
<!-- Node12 -->
<g id="Node000012" class="node">
<title>Node12</title>
<g id="a_Node000012"><a xlink:href="log_8c.html#a0e55a37e3f059fb1512c59071164869e" target="_top" xlink:title="清理日志系统资源">
<polygon fill="white" stroke="#666666" points="378,-95 254,-95 254,-76 378,-76 378,-95"/>
<text text-anchor="middle" x="316" y="-83" font-family="Helvetica,sans-Serif" font-size="10.00">tefkernel_log_cleanup</text>
</a>
</g>
</g>
<!-- Node2&#45;&gt;Node12 -->
<g id="edge12_Node000002_Node000012" class="edge">
<title>Node2&#45;&gt;Node12</title>
<g id="a_edge12_Node000002_Node000012"><a xlink:title=" ">
<path fill="none" stroke="#63b8ff" d="M205.47,-113.91C224.63,-108.94 248.21,-102.82 268.59,-97.54"/>
<polygon fill="#63b8ff" stroke="#63b8ff" points="269.5,-100.92 278.3,-95.02 267.74,-94.14 269.5,-100.92"/>
</a>
</g>
</g>
<!-- Node14 -->
<g id="Node000014" class="node">
<title>Node14</title>
<g id="a_Node000014"><a xlink:href="log_8c.html#ab2a186a7ea4ea47dd0d65078ddcf1c50" target="_top" xlink:title=" ">
<polygon fill="white" stroke="#666666" points="528.5,-133 418.5,-133 418.5,-114 528.5,-114 528.5,-133"/>
<text text-anchor="middle" x="473.5" y="-121" font-family="Helvetica,sans-Serif" font-size="10.00">tefkernel_log_write</text>
</a>
</g>
</g>
<!-- Node2&#45;&gt;Node14 -->
<g id="edge20_Node000002_Node000014" class="edge">
<title>Node2&#45;&gt;Node14</title>
<g id="a_edge20_Node000002_Node000014"><a xlink:title=" ">
<path fill="none" stroke="#63b8ff" d="M218.02,-123.5C269.81,-123.5 351.32,-123.5 408.09,-123.5"/>
<polygon fill="#63b8ff" stroke="#63b8ff" points="408.39,-127 418.38,-123.5 408.38,-120 408.39,-127"/>
</a>
</g>
</g>
<!-- Node4 -->
<g id="Node000004" class="node">
<title>Node4</title>
<g id="a_Node000004"><a xlink:href="log_8c.html#a9c2347a62c8012dae469407c32e475af" target="_top" xlink:title=" ">
<polygon fill="white" stroke="#666666" points="533,-257.5 414,-257.5 414,-227.5 533,-227.5 533,-257.5"/>
<text text-anchor="start" x="422" y="-245.5" font-family="Helvetica,sans-Serif" font-size="10.00">get_current_time_for</text>
<text text-anchor="middle" x="473.5" y="-234.5" font-family="Helvetica,sans-Serif" font-size="10.00">_filename</text>
</a>
</g>
</g>
<!-- Node3&#45;&gt;Node4 -->
<g id="edge3_Node000003_Node000004" class="edge">
<title>Node3&#45;&gt;Node4</title>
<g id="a_edge3_Node000003_Node000004"><a xlink:title=" ">
<path fill="none" stroke="#63b8ff" d="M370.08,-241.18C380.86,-241.32 392.34,-241.47 403.58,-241.61"/>
<polygon fill="#63b8ff" stroke="#63b8ff" points="403.75,-245.12 413.8,-241.74 403.84,-238.12 403.75,-245.12"/>
</a>
</g>
</g>
<!-- Node8&#45;&gt;Node5 -->
<g id="edge9_Node000008_Node000005" class="edge">
<title>Node8&#45;&gt;Node5</title>
<g id="a_edge9_Node000008_Node000005"><a xlink:title=" ">
<path fill="none" stroke="#63b8ff" d="M507.88,-168.87C529.92,-173.74 559.26,-180.22 584.46,-185.79"/>
<polygon fill="#63b8ff" stroke="#63b8ff" points="583.73,-189.21 594.25,-187.95 585.24,-182.37 583.73,-189.21"/>
</a>
</g>
</g>
<!-- Node9 -->
<g id="Node000009" class="node">
<title>Node9</title>
<g id="a_Node000009"><a xlink:href="log_8c.html#a0e1141c4ee0b9bc63987f55b488d92bf" target="_top" xlink:title=" ">
<polygon fill="white" stroke="#666666" points="684,-133 593,-133 593,-114 684,-114 684,-133"/>
<text text-anchor="middle" x="638.5" y="-121" font-family="Helvetica,sans-Serif" font-size="10.00">console_output</text>
</a>
</g>
</g>
<!-- Node8&#45;&gt;Node9 -->
<g id="edge8_Node000008_Node000009" class="edge">
<title>Node8&#45;&gt;Node9</title>
<g id="a_edge8_Node000008_Node000009"><a xlink:title=" ">
<path fill="none" stroke="#63b8ff" d="M507.88,-153.72C530.57,-148.43 561.02,-141.33 586.71,-135.34"/>
<polygon fill="#63b8ff" stroke="#63b8ff" points="587.71,-138.7 596.65,-133.02 586.12,-131.88 587.71,-138.7"/>
</a>
</g>
</g>
<!-- Node10 -->
<g id="Node000010" class="node">
<title>Node10</title>
<g id="a_Node000010"><a xlink:href="log_8c.html#a06a2ce6a6a8a2b3b4ba940addbfb0807" target="_top" xlink:title=" ">
<polygon fill="white" stroke="#666666" points="686,-170 591,-170 591,-151 686,-151 686,-170"/>
<text text-anchor="middle" x="638.5" y="-158" font-family="Helvetica,sans-Serif" font-size="10.00">get_level_string</text>
</a>
</g>
</g>
<!-- Node8&#45;&gt;Node10 -->
<g id="edge10_Node000008_Node000010" class="edge">
<title>Node8&#45;&gt;Node10</title>
<g id="a_edge10_Node000008_Node000010"><a xlink:title=" ">
<path fill="none" stroke="#63b8ff" d="M507.88,-161.3C528.82,-161.17 556.37,-161 580.69,-160.85"/>
<polygon fill="#63b8ff" stroke="#63b8ff" points="580.9,-164.35 590.88,-160.79 580.86,-157.35 580.9,-164.35"/>
</a>
</g>
</g>
<!-- Node11 -->
<g id="Node000011" class="node">
<title>Node11</title>
<g id="a_Node000011"><a xlink:href="log_8c.html#afdc211ae054bee7e384becdba4e87c0d" target="_top" xlink:title=" ">
<polygon fill="white" stroke="#666666" points="692,-244 585,-244 585,-225 692,-225 692,-244"/>
<text text-anchor="middle" x="638.5" y="-232" font-family="Helvetica,sans-Serif" font-size="10.00">log_queue_pop_all</text>
</a>
</g>
</g>
<!-- Node8&#45;&gt;Node11 -->
<g id="edge11_Node000008_Node000011" class="edge">
<title>Node8&#45;&gt;Node11</title>
<g id="a_edge11_Node000008_Node000011"><a xlink:title=" ">
<path fill="none" stroke="#63b8ff" d="M488.29,-171.14C506.16,-183.25 538.65,-203.95 569,-216.5 573.78,-218.48 578.83,-220.29 583.95,-221.94"/>
<polygon fill="#63b8ff" stroke="#63b8ff" points="583.21,-225.37 593.8,-224.91 585.23,-218.67 583.21,-225.37"/>
</a>
</g>
</g>
<!-- Node12&#45;&gt;Node6 -->
<g id="edge14_Node000012_Node000006" class="edge">
<title>Node12&#45;&gt;Node6</title>
<g id="a_edge14_Node000012_Node000006"><a xlink:title=" ">
<path fill="none" stroke="#63b8ff" d="M357.05,-75.97C377.01,-71.22 401.35,-65.43 422.53,-60.39"/>
<polygon fill="#63b8ff" stroke="#63b8ff" points="423.4,-63.78 432.32,-58.06 421.78,-56.97 423.4,-63.78"/>
</a>
</g>
</g>
<!-- Node13 -->
<g id="Node000013" class="node">
<title>Node13</title>
<g id="a_Node000013"><a xlink:href="log_8c.html#a297178e8a813f0c2e17c031d98cd448e" target="_top" xlink:title=" ">
<polygon fill="white" stroke="#666666" points="521.5,-95 425.5,-95 425.5,-76 521.5,-76 521.5,-95"/>
<text text-anchor="middle" x="473.5" y="-83" font-family="Helvetica,sans-Serif" font-size="10.00">log_queue_clear</text>
</a>
</g>
</g>
<!-- Node12&#45;&gt;Node13 -->
<g id="edge13_Node000012_Node000013" class="edge">
<title>Node12&#45;&gt;Node13</title>
<g id="a_edge13_Node000012_Node000013"><a xlink:title=" ">
<path fill="none" stroke="#63b8ff" d="M378.01,-85.5C390.12,-85.5 402.8,-85.5 414.79,-85.5"/>
<polygon fill="#63b8ff" stroke="#63b8ff" points="415.13,-89 425.13,-85.5 415.13,-82 415.13,-89"/>
</a>
</g>
</g>
<!-- Node12&#45;&gt;Node14 -->
<g id="edge15_Node000012_Node000014" class="edge">
<title>Node12&#45;&gt;Node14</title>
<g id="a_edge15_Node000012_Node000014"><a xlink:title=" ">
<path fill="none" stroke="#63b8ff" d="M356.24,-95.09C376.76,-100.1 402.07,-106.29 423.83,-111.61"/>
<polygon fill="#63b8ff" stroke="#63b8ff" points="423,-115.01 433.54,-113.98 424.66,-108.21 423,-115.01"/>
</a>
</g>
</g>
<!-- Node14&#45;&gt;Node5 -->
<g id="edge17_Node000014_Node000005" class="edge">
<title>Node14&#45;&gt;Node5</title>
<g id="a_edge17_Node000014_Node000005"><a xlink:title=" ">
<path fill="none" stroke="#63b8ff" d="M510.94,-133.08C518.53,-135.85 526.26,-139.3 533,-143.5 552.2,-155.47 549.38,-168.23 569,-179.5 572.08,-181.27 575.34,-182.87 578.69,-184.31"/>
<polygon fill="#63b8ff" stroke="#63b8ff" points="577.74,-187.69 588.33,-187.98 580.24,-181.15 577.74,-187.69"/>
</a>
</g>
</g>
<!-- Node14&#45;&gt;Node9 -->
<g id="edge16_Node000014_Node000009" class="edge">
<title>Node14&#45;&gt;Node9</title>
<g id="a_edge16_Node000014_Node000009"><a xlink:title=" ">
<path fill="none" stroke="#63b8ff" d="M528.78,-123.5C546.2,-123.5 565.49,-123.5 582.93,-123.5"/>
<polygon fill="#63b8ff" stroke="#63b8ff" points="582.95,-127 592.95,-123.5 582.95,-120 582.95,-127"/>
</a>
</g>
</g>
<!-- Node14&#45;&gt;Node10 -->
<g id="edge18_Node000014_Node000010" class="edge">
<title>Node14&#45;&gt;Node10</title>
<g id="a_edge18_Node000014_Node000010"><a xlink:title=" ">
<path fill="none" stroke="#63b8ff" d="M516.48,-133.03C537.5,-137.8 563.15,-143.62 585.42,-148.68"/>
<polygon fill="#63b8ff" stroke="#63b8ff" points="584.86,-152.14 595.38,-150.94 586.41,-145.31 584.86,-152.14"/>
</a>
</g>
</g>
<!-- Node15 -->
<g id="Node000015" class="node">
<title>Node15</title>
<g id="a_Node000015"><a xlink:href="log_8c.html#a024d90c20dedc91eb03b26bb425da982" target="_top" xlink:title=" ">
<polygon fill="white" stroke="#666666" points="686,-96 591,-96 591,-77 686,-77 686,-96"/>
<text text-anchor="middle" x="638.5" y="-84" font-family="Helvetica,sans-Serif" font-size="10.00">log_queue_push</text>
</a>
</g>
</g>
<!-- Node14&#45;&gt;Node15 -->
<g id="edge19_Node000014_Node000015" class="edge">
<title>Node14&#45;&gt;Node15</title>
<g id="a_edge19_Node000014_Node000015"><a xlink:title=" ">
<path fill="none" stroke="#63b8ff" d="M516.48,-113.97C537.5,-109.2 563.15,-103.38 585.42,-98.32"/>
<polygon fill="#63b8ff" stroke="#63b8ff" points="586.41,-101.69 595.38,-96.06 584.86,-94.86 586.41,-101.69"/>
</a>
</g>
</g>
</g>
</svg>
