<?xml version="1.0" encoding="UTF-8" standalone="no"?>
<!DOCTYPE svg PUBLIC "-//W3C//DTD SVG 1.1//EN"
 "http://www.w3.org/Graphics/SVG/1.1/DTD/svg11.dtd">
<!-- Generated by graphviz version 2.42.4 (0)
 -->
<!-- Title: console_output Pages: 1 -->
<svg width="853pt" height="143pt"
 viewBox="0.00 0.00 853.00 142.57" xmlns="http://www.w3.org/2000/svg" xmlns:xlink="http://www.w3.org/1999/xlink">
<g id="graph0" class="graph" transform="scale(1 1) rotate(0) translate(4 138.57)">
<title>console_output</title>
<!-- Node1 -->
<g id="Node000001" class="node">
<title>Node1</title>
<g id="a_Node000001"><a xlink:title=" ">
<polygon fill="#999999" stroke="#666666" points="845,-96.57 754,-96.57 754,-77.57 845,-77.57 845,-96.57"/>
<text text-anchor="middle" x="799.5" y="-84.57" font-family="Helvetica,sans-Serif" font-size="10.00">console_output</text>
</a>
</g>
</g>
<!-- Node2 -->
<g id="Node000002" class="node">
<title>Node2</title>
<g id="a_Node000002"><a xlink:href="log_8c.html#a8cd98c0dcd03a66bfbb0cd16f4b27143" target="_top" xlink:title=" ">
<polygon fill="white" stroke="#666666" points="697,-134.57 629,-134.57 629,-115.57 697,-115.57 697,-134.57"/>
<text text-anchor="middle" x="663" y="-122.57" font-family="Helvetica,sans-Serif" font-size="10.00">log_thread</text>
</a>
</g>
</g>
<!-- Node1&#45;&gt;Node2 -->
<g id="edge1_Node000001_Node000002" class="edge">
<title>Node1&#45;&gt;Node2</title>
<g id="a_edge1_Node000001_Node000002"><a xlink:title=" ">
<path fill="none" stroke="#63b8ff" d="M754.82,-99.41C736.2,-104.68 714.8,-110.72 697.46,-115.62"/>
<polygon fill="#63b8ff" stroke="#63b8ff" points="755.89,-102.75 764.56,-96.66 753.99,-96.01 755.89,-102.75"/>
</a>
</g>
</g>
<!-- Node6 -->
<g id="Node000006" class="node">
<title>Node6</title>
<g id="a_Node000006"><a xlink:href="log_8c.html#ab2a186a7ea4ea47dd0d65078ddcf1c50" target="_top" xlink:title=" ">
<polygon fill="white" stroke="#666666" points="718,-78.57 608,-78.57 608,-59.57 718,-59.57 718,-78.57"/>
<text text-anchor="middle" x="663" y="-66.57" font-family="Helvetica,sans-Serif" font-size="10.00">tefkernel_log_write</text>
</a>
</g>
</g>
<!-- Node1&#45;&gt;Node6 -->
<g id="edge5_Node000001_Node000006" class="edge">
<title>Node1&#45;&gt;Node6</title>
<g id="a_edge5_Node000001_Node000006"><a xlink:title=" ">
<path fill="none" stroke="#63b8ff" d="M743.7,-79.74C735.36,-78.62 726.75,-77.47 718.41,-76.36"/>
<polygon fill="#63b8ff" stroke="#63b8ff" points="743.34,-83.22 753.71,-81.08 744.27,-76.28 743.34,-83.22"/>
</a>
</g>
</g>
<!-- Node3 -->
<g id="Node000003" class="node">
<title>Node3</title>
<g id="a_Node000003"><a xlink:href="log_8c.html#a4b4c5cb4a19bc4c73b0640ca73f115e4" target="_top" xlink:title="初始化日志系统">
<polygon fill="white" stroke="#666666" points="393,-116.57 292,-116.57 292,-97.57 393,-97.57 393,-116.57"/>
<text text-anchor="middle" x="342.5" y="-104.57" font-family="Helvetica,sans-Serif" font-size="10.00">tefkernel_log_init</text>
</a>
</g>
</g>
<!-- Node2&#45;&gt;Node3 -->
<g id="edge2_Node000002_Node000003" class="edge">
<title>Node2&#45;&gt;Node3</title>
<g id="a_edge2_Node000002_Node000003"><a xlink:title=" ">
<path fill="none" stroke="#63b8ff" d="M618.63,-125.81C574.58,-126.19 504.44,-125.82 444,-121.07 427.4,-119.77 409.37,-117.52 393.21,-115.2"/>
<polygon fill="#63b8ff" stroke="#63b8ff" points="618.74,-129.31 628.7,-125.7 618.66,-122.31 618.74,-129.31"/>
</a>
</g>
</g>
<!-- Node4 -->
<g id="Node000004" class="node">
<title>Node4</title>
<g id="a_Node000004"><a xlink:href="android__runtime__core_8cpp.html#a6042abb8a7e0011e5c5f9dd7efcf46bf" target="_top" xlink:title=" ">
<polygon fill="white" stroke="#666666" points="80,-115.57 0,-115.57 0,-96.57 80,-96.57 80,-115.57"/>
<text text-anchor="middle" x="40" y="-103.57" font-family="Helvetica,sans-Serif" font-size="10.00">__attribute__</text>
</a>
</g>
</g>
<!-- Node3&#45;&gt;Node4 -->
<g id="edge3_Node000003_Node000004" class="edge">
<title>Node3&#45;&gt;Node4</title>
<g id="a_edge3_Node000003_Node000004"><a xlink:title=" ">
<path fill="none" stroke="#63b8ff" d="M287.56,-118.55C272.56,-121.24 256.21,-123.72 241,-125.07 185.66,-129.99 171.13,-131.95 116,-125.07 101.07,-123.21 84.85,-119.34 71.32,-115.58"/>
<polygon fill="#63b8ff" stroke="#63b8ff" points="288.51,-121.93 297.7,-116.66 287.23,-115.05 288.51,-121.93"/>
</a>
</g>
</g>
<!-- Node5 -->
<g id="Node000005" class="node">
<title>Node5</title>
<g id="a_Node000005"><a xlink:href="desktop__runtime__core_8c.html#a7d0bcf8cb6683acce102c37b06a0f18b" target="_top" xlink:title=" ">
<polygon fill="white" stroke="#666666" points="219,-115.57 138,-115.57 138,-96.57 219,-96.57 219,-115.57"/>
<text text-anchor="middle" x="178.5" y="-103.57" font-family="Helvetica,sans-Serif" font-size="10.00">init_tefkernel</text>
</a>
</g>
</g>
<!-- Node3&#45;&gt;Node5 -->
<g id="edge4_Node000003_Node000005" class="edge">
<title>Node3&#45;&gt;Node5</title>
<g id="a_edge4_Node000003_Node000005"><a xlink:title=" ">
<path fill="none" stroke="#63b8ff" d="M281.56,-106.7C260.77,-106.58 238,-106.44 219.25,-106.32"/>
<polygon fill="#63b8ff" stroke="#63b8ff" points="281.55,-110.2 291.57,-106.77 281.59,-103.2 281.55,-110.2"/>
</a>
</g>
</g>
<!-- Node6&#45;&gt;Node3 -->
<g id="edge11_Node000006_Node000003" class="edge">
<title>Node6&#45;&gt;Node3</title>
<g id="a_edge11_Node000006_Node000003"><a xlink:title=" ">
<path fill="none" stroke="#63b8ff" d="M611.77,-80.84C598.87,-83.54 584.97,-86.17 572,-88.07 510.75,-97.05 439.6,-102.13 393.18,-104.74"/>
<polygon fill="#63b8ff" stroke="#63b8ff" points="612.83,-84.19 621.87,-78.67 611.36,-77.35 612.83,-84.19"/>
</a>
</g>
</g>
<!-- Node7 -->
<g id="Node000007" class="node">
<title>Node7</title>
<g id="a_Node000007"><a xlink:href="log_8c.html#a0e55a37e3f059fb1512c59071164869e" target="_top" xlink:title="清理日志系统资源">
<polygon fill="white" stroke="#666666" points="570,-78.57 446,-78.57 446,-59.57 570,-59.57 570,-78.57"/>
<text text-anchor="middle" x="508" y="-66.57" font-family="Helvetica,sans-Serif" font-size="10.00">tefkernel_log_cleanup</text>
</a>
</g>
</g>
<!-- Node6&#45;&gt;Node7 -->
<g id="edge6_Node000006_Node000007" class="edge">
<title>Node6&#45;&gt;Node7</title>
<g id="a_edge6_Node000006_Node000007"><a xlink:title=" ">
<path fill="none" stroke="#63b8ff" d="M597.54,-69.07C588.49,-69.07 579.21,-69.07 570.23,-69.07"/>
<polygon fill="#63b8ff" stroke="#63b8ff" points="597.63,-72.57 607.63,-69.07 597.63,-65.57 597.63,-72.57"/>
</a>
</g>
</g>
<!-- Node10 -->
<g id="Node000010" class="node">
<title>Node10</title>
<g id="a_Node000010"><a xlink:href="log_8c.html#af3d4bd220bd0130cd530fa01b69f8968" target="_top" xlink:title=" ">
<polygon fill="white" stroke="#666666" points="572,-41.57 444,-41.57 444,-22.57 572,-22.57 572,-41.57"/>
<text text-anchor="middle" x="508" y="-29.57" font-family="Helvetica,sans-Serif" font-size="10.00">tefkernel_log_write_ex</text>
</a>
</g>
</g>
<!-- Node6&#45;&gt;Node10 -->
<g id="edge12_Node000006_Node000010" class="edge">
<title>Node6&#45;&gt;Node10</title>
<g id="a_edge12_Node000006_Node000010"><a xlink:title=" ">
<path fill="none" stroke="#63b8ff" d="M612.69,-57.15C591.93,-52.13 568.11,-46.37 548.53,-41.63"/>
<polygon fill="#63b8ff" stroke="#63b8ff" points="612.06,-60.6 622.6,-59.55 613.7,-53.79 612.06,-60.6"/>
</a>
</g>
</g>
<!-- Node11 -->
<g id="Node000011" class="node">
<title>Node11</title>
<g id="a_Node000011"><a xlink:href="log_8c.html#aca6be02728f484d2c569479a3cfdac85" target="_top" xlink:title=" ">
<polygon fill="white" stroke="#666666" points="408,-22.57 277,-22.57 277,-3.57 408,-3.57 408,-22.57"/>
<text text-anchor="middle" x="342.5" y="-10.57" font-family="Helvetica,sans-Serif" font-size="10.00">tefkernel_log_write_net</text>
</a>
</g>
</g>
<!-- Node6&#45;&gt;Node11 -->
<g id="edge14_Node000006_Node000011" class="edge">
<title>Node6&#45;&gt;Node11</title>
<g id="a_edge14_Node000006_Node000011"><a xlink:title=" ">
<path fill="none" stroke="#63b8ff" d="M642.97,-52.78C625.73,-39.16 598.97,-20.78 572,-13.07 518.41,2.24 454.81,0.74 408.34,-3.72"/>
<polygon fill="#63b8ff" stroke="#63b8ff" points="641.11,-55.77 651.07,-59.38 645.53,-50.35 641.11,-55.77"/>
</a>
</g>
</g>
<!-- Node7&#45;&gt;Node3 -->
<g id="edge10_Node000007_Node000003" class="edge">
<title>Node7&#45;&gt;Node3</title>
<g id="a_edge10_Node000007_Node000003"><a xlink:title=" ">
<path fill="none" stroke="#63b8ff" d="M455.82,-80.97C432.83,-86.31 406.09,-92.53 384.46,-97.55"/>
<polygon fill="#63b8ff" stroke="#63b8ff" points="456.79,-84.34 465.74,-78.66 455.21,-77.52 456.79,-84.34"/>
</a>
</g>
</g>
<!-- Node8 -->
<g id="Node000008" class="node">
<title>Node8</title>
<g id="a_Node000008"><a xlink:href="android__runtime__core_8cpp.html#a7d8219b35761d4e7ab12b4ccf3deadef" target="_top" xlink:title=" ">
<polygon fill="white" stroke="#666666" points="386.5,-78.57 298.5,-78.57 298.5,-59.57 386.5,-59.57 386.5,-78.57"/>
<text text-anchor="middle" x="342.5" y="-66.57" font-family="Helvetica,sans-Serif" font-size="10.00">signal_handler</text>
</a>
</g>
</g>
<!-- Node7&#45;&gt;Node8 -->
<g id="edge7_Node000007_Node000008" class="edge">
<title>Node7&#45;&gt;Node8</title>
<g id="a_edge7_Node000007_Node000008"><a xlink:title=" ">
<path fill="none" stroke="#63b8ff" d="M435.44,-69.07C418.88,-69.07 401.75,-69.07 386.83,-69.07"/>
<polygon fill="#63b8ff" stroke="#63b8ff" points="435.65,-72.57 445.65,-69.07 435.65,-65.57 435.65,-72.57"/>
</a>
</g>
</g>
<!-- Node9 -->
<g id="Node000009" class="node">
<title>Node9</title>
<g id="a_Node000009"><a xlink:href="android__runtime__core_8cpp.html#a7df47e37fd55c553b8fd39cf996d786c" target="_top" xlink:title=" ">
<polygon fill="white" stroke="#666666" points="241,-78.57 116,-78.57 116,-59.57 241,-59.57 241,-78.57"/>
<text text-anchor="middle" x="178.5" y="-66.57" font-family="Helvetica,sans-Serif" font-size="10.00">setup_signal_handlers</text>
</a>
</g>
</g>
<!-- Node8&#45;&gt;Node9 -->
<g id="edge8_Node000008_Node000009" class="edge">
<title>Node8&#45;&gt;Node9</title>
<g id="a_edge8_Node000008_Node000009"><a xlink:title=" ">
<path fill="none" stroke="#63b8ff" d="M288,-69.07C273.05,-69.07 256.69,-69.07 241.3,-69.07"/>
<polygon fill="#63b8ff" stroke="#63b8ff" points="288.09,-72.57 298.09,-69.07 288.09,-65.57 288.09,-72.57"/>
</a>
</g>
</g>
<!-- Node9&#45;&gt;Node4 -->
<g id="edge9_Node000009_Node000004" class="edge">
<title>Node9&#45;&gt;Node4</title>
<g id="a_edge9_Node000009_Node000004"><a xlink:title=" ">
<path fill="none" stroke="#63b8ff" d="M132.53,-81.26C114.33,-86.2 93.62,-91.81 76.51,-96.45"/>
<polygon fill="#63b8ff" stroke="#63b8ff" points="133.61,-84.6 142.35,-78.6 131.78,-77.84 133.61,-84.6"/>
</a>
</g>
</g>
<!-- Node10&#45;&gt;Node11 -->
<g id="edge13_Node000010_Node000011" class="edge">
<title>Node10&#45;&gt;Node11</title>
<g id="a_edge13_Node000010_Node000011"><a xlink:title=" ">
<path fill="none" stroke="#63b8ff" d="M433.83,-23.57C425.27,-22.58 416.59,-21.57 408.17,-20.59"/>
<polygon fill="#63b8ff" stroke="#63b8ff" points="433.45,-27.05 443.79,-24.73 434.26,-20.1 433.45,-27.05"/>
</a>
</g>
</g>
</g>
</svg>
