<?xml version="1.0" encoding="UTF-8" standalone="no"?>
<!DOCTYPE svg PUBLIC "-//W3C//DTD SVG 1.1//EN"
 "http://www.w3.org/Graphics/SVG/1.1/DTD/svg11.dtd">
<!-- Generated by graphviz version 2.42.4 (0)
 -->
<!-- Title: tefkernel_log_write Pages: 1 -->
<svg width="293pt" height="138pt"
 viewBox="0.00 0.00 293.00 138.00" xmlns="http://www.w3.org/2000/svg" xmlns:xlink="http://www.w3.org/1999/xlink">
<g id="graph0" class="graph" transform="scale(1 1) rotate(0) translate(4 134)">
<title>tefkernel_log_write</title>
<!-- Node1 -->
<g id="Node000001" class="node">
<title>Node1</title>
<g id="a_Node000001"><a xlink:title=" ">
<polygon fill="#999999" stroke="#666666" points="110,-74 0,-74 0,-55 110,-55 110,-74"/>
<text text-anchor="middle" x="55" y="-62" font-family="Helvetica,sans-Serif" font-size="10.00">tefkernel_log_write</text>
</a>
</g>
</g>
<!-- Node2 -->
<g id="Node000002" class="node">
<title>Node2</title>
<g id="a_Node000002"><a xlink:href="log_8c.html#a0e1141c4ee0b9bc63987f55b488d92bf" target="_top" xlink:title=" ">
<polygon fill="white" stroke="#666666" points="261,-130 170,-130 170,-111 261,-111 261,-130"/>
<text text-anchor="middle" x="215.5" y="-118" font-family="Helvetica,sans-Serif" font-size="10.00">console_output</text>
</a>
</g>
</g>
<!-- Node1&#45;&gt;Node2 -->
<g id="edge1_Node000001_Node000002" class="edge">
<title>Node1&#45;&gt;Node2</title>
<g id="a_edge1_Node000001_Node000002"><a xlink:title=" ">
<path fill="none" stroke="#63b8ff" d="M76.41,-74.1C94.44,-82.35 121.6,-94.19 146,-102.5 151.96,-104.53 158.27,-106.47 164.56,-108.27"/>
<polygon fill="#63b8ff" stroke="#63b8ff" points="163.8,-111.69 174.37,-110.98 165.66,-104.94 163.8,-111.69"/>
</a>
</g>
</g>
<!-- Node3 -->
<g id="Node000003" class="node">
<title>Node3</title>
<g id="a_Node000003"><a xlink:href="log_8c.html#a1fdaa680ee19962f59d42fbfe4bc3ce0" target="_top" xlink:title=" ">
<polygon fill="white" stroke="#666666" points="285,-93 146,-93 146,-74 285,-74 285,-93"/>
<text text-anchor="middle" x="215.5" y="-81" font-family="Helvetica,sans-Serif" font-size="10.00">get_current_time_for_log</text>
</a>
</g>
</g>
<!-- Node1&#45;&gt;Node3 -->
<g id="edge2_Node000001_Node000003" class="edge">
<title>Node1&#45;&gt;Node3</title>
<g id="a_edge2_Node000001_Node000003"><a xlink:title=" ">
<path fill="none" stroke="#63b8ff" d="M110.1,-70.99C118.35,-71.97 127.01,-73.01 135.66,-74.05"/>
<polygon fill="#63b8ff" stroke="#63b8ff" points="135.44,-77.55 145.79,-75.26 136.27,-70.6 135.44,-77.55"/>
</a>
</g>
</g>
<!-- Node4 -->
<g id="Node000004" class="node">
<title>Node4</title>
<g id="a_Node000004"><a xlink:href="log_8c.html#a06a2ce6a6a8a2b3b4ba940addbfb0807" target="_top" xlink:title=" ">
<polygon fill="white" stroke="#666666" points="263,-56 168,-56 168,-37 263,-37 263,-56"/>
<text text-anchor="middle" x="215.5" y="-44" font-family="Helvetica,sans-Serif" font-size="10.00">get_level_string</text>
</a>
</g>
</g>
<!-- Node1&#45;&gt;Node4 -->
<g id="edge3_Node000001_Node000004" class="edge">
<title>Node1&#45;&gt;Node4</title>
<g id="a_edge3_Node000001_Node000004"><a xlink:title=" ">
<path fill="none" stroke="#63b8ff" d="M110.1,-58.36C125.48,-56.61 142.26,-54.7 157.79,-52.94"/>
<polygon fill="#63b8ff" stroke="#63b8ff" points="158.24,-56.41 167.78,-51.81 157.45,-49.46 158.24,-56.41"/>
</a>
</g>
</g>
<!-- Node5 -->
<g id="Node000005" class="node">
<title>Node5</title>
<g id="a_Node000005"><a xlink:href="log_8c.html#a024d90c20dedc91eb03b26bb425da982" target="_top" xlink:title=" ">
<polygon fill="white" stroke="#666666" points="263,-19 168,-19 168,0 263,0 263,-19"/>
<text text-anchor="middle" x="215.5" y="-7" font-family="Helvetica,sans-Serif" font-size="10.00">log_queue_push</text>
</a>
</g>
</g>
<!-- Node1&#45;&gt;Node5 -->
<g id="edge4_Node000001_Node000005" class="edge">
<title>Node1&#45;&gt;Node5</title>
<g id="a_edge4_Node000001_Node000005"><a xlink:title=" ">
<path fill="none" stroke="#63b8ff" d="M77.94,-54.94C96.01,-47.25 122.4,-36.47 146,-28.5 152.91,-26.17 160.29,-23.9 167.54,-21.79"/>
<polygon fill="#63b8ff" stroke="#63b8ff" points="168.64,-25.11 177.3,-19.02 166.73,-18.38 168.64,-25.11"/>
</a>
</g>
</g>
</g>
</svg>
