<?xml version="1.0" encoding="UTF-8" standalone="no"?>
<!DOCTYPE svg PUBLIC "-//W3C//DTD SVG 1.1//EN"
 "http://www.w3.org/Graphics/SVG/1.1/DTD/svg11.dtd">
<!-- Generated by graphviz version 2.42.4 (0)
 -->
<!-- Title: log_queue_clear Pages: 1 -->
<svg width="678pt" height="103pt"
 viewBox="0.00 0.00 678.00 103.00" xmlns="http://www.w3.org/2000/svg" xmlns:xlink="http://www.w3.org/1999/xlink">
<g id="graph0" class="graph" transform="scale(1 1) rotate(0) translate(4 99)">
<title>log_queue_clear</title>
<!-- Node1 -->
<g id="Node000001" class="node">
<title>Node1</title>
<g id="a_Node000001"><a xlink:title=" ">
<polygon fill="#999999" stroke="#666666" points="670,-75 574,-75 574,-56 670,-56 670,-75"/>
<text text-anchor="middle" x="622" y="-63" font-family="Helvetica,sans-Serif" font-size="10.00">log_queue_clear</text>
</a>
</g>
</g>
<!-- Node2 -->
<g id="Node000002" class="node">
<title>Node2</title>
<g id="a_Node000002"><a xlink:href="log_8c.html#a0e55a37e3f059fb1512c59071164869e" target="_top" xlink:title="清理日志系统资源">
<polygon fill="white" stroke="#666666" points="538,-75 414,-75 414,-56 538,-56 538,-75"/>
<text text-anchor="middle" x="476" y="-63" font-family="Helvetica,sans-Serif" font-size="10.00">tefkernel_log_cleanup</text>
</a>
</g>
</g>
<!-- Node1&#45;&gt;Node2 -->
<g id="edge1_Node000001_Node000002" class="edge">
<title>Node1&#45;&gt;Node2</title>
<g id="a_edge1_Node000001_Node000002"><a xlink:title=" ">
<path fill="none" stroke="#63b8ff" d="M563.76,-65.5C555.34,-65.5 546.65,-65.5 538.16,-65.5"/>
<polygon fill="#63b8ff" stroke="#63b8ff" points="563.85,-69 573.85,-65.5 563.85,-62 563.85,-69"/>
</a>
</g>
</g>
<!-- Node3 -->
<g id="Node000003" class="node">
<title>Node3</title>
<g id="a_Node000003"><a xlink:href="android__runtime__core_8cpp.html#a7d8219b35761d4e7ab12b4ccf3deadef" target="_top" xlink:title=" ">
<polygon fill="white" stroke="#666666" points="371.5,-94 283.5,-94 283.5,-75 371.5,-75 371.5,-94"/>
<text text-anchor="middle" x="327.5" y="-82" font-family="Helvetica,sans-Serif" font-size="10.00">signal_handler</text>
</a>
</g>
</g>
<!-- Node2&#45;&gt;Node3 -->
<g id="edge2_Node000002_Node000003" class="edge">
<title>Node2&#45;&gt;Node3</title>
<g id="a_edge2_Node000002_Node000003"><a xlink:title=" ">
<path fill="none" stroke="#63b8ff" d="M403.72,-74.74C392.79,-76.16 381.8,-77.59 371.72,-78.89"/>
<polygon fill="#63b8ff" stroke="#63b8ff" points="404.25,-78.2 413.72,-73.45 403.35,-71.26 404.25,-78.2"/>
</a>
</g>
</g>
<!-- Node6 -->
<g id="Node000006" class="node">
<title>Node6</title>
<g id="a_Node000006"><a xlink:href="log_8c.html#a4b4c5cb4a19bc4c73b0640ca73f115e4" target="_top" xlink:title="初始化日志系统">
<polygon fill="white" stroke="#666666" points="378,-57 277,-57 277,-38 378,-38 378,-57"/>
<text text-anchor="middle" x="327.5" y="-45" font-family="Helvetica,sans-Serif" font-size="10.00">tefkernel_log_init</text>
</a>
</g>
</g>
<!-- Node2&#45;&gt;Node6 -->
<g id="edge5_Node000002_Node000006" class="edge">
<title>Node2&#45;&gt;Node6</title>
<g id="a_edge5_Node000002_Node000006"><a xlink:title=" ">
<path fill="none" stroke="#63b8ff" d="M403.72,-56.74C395.17,-55.69 386.58,-54.64 378.42,-53.63"/>
<polygon fill="#63b8ff" stroke="#63b8ff" points="403.37,-60.22 413.72,-57.97 404.22,-53.28 403.37,-60.22"/>
</a>
</g>
</g>
<!-- Node4 -->
<g id="Node000004" class="node">
<title>Node4</title>
<g id="a_Node000004"><a xlink:href="android__runtime__core_8cpp.html#a7df47e37fd55c553b8fd39cf996d786c" target="_top" xlink:title=" ">
<polygon fill="white" stroke="#666666" points="241,-95 116,-95 116,-76 241,-76 241,-95"/>
<text text-anchor="middle" x="178.5" y="-83" font-family="Helvetica,sans-Serif" font-size="10.00">setup_signal_handlers</text>
</a>
</g>
</g>
<!-- Node3&#45;&gt;Node4 -->
<g id="edge3_Node000003_Node000004" class="edge">
<title>Node3&#45;&gt;Node4</title>
<g id="a_edge3_Node000003_Node000004"><a xlink:title=" ">
<path fill="none" stroke="#63b8ff" d="M273.02,-84.86C262.62,-84.93 251.65,-85.01 241.02,-85.08"/>
<polygon fill="#63b8ff" stroke="#63b8ff" points="273.21,-88.36 283.19,-84.79 273.17,-81.36 273.21,-88.36"/>
</a>
</g>
</g>
<!-- Node5 -->
<g id="Node000005" class="node">
<title>Node5</title>
<g id="a_Node000005"><a xlink:href="android__runtime__core_8cpp.html#a6042abb8a7e0011e5c5f9dd7efcf46bf" target="_top" xlink:title=" ">
<polygon fill="white" stroke="#666666" points="80,-76 0,-76 0,-57 80,-57 80,-76"/>
<text text-anchor="middle" x="40" y="-64" font-family="Helvetica,sans-Serif" font-size="10.00">__attribute__</text>
</a>
</g>
</g>
<!-- Node4&#45;&gt;Node5 -->
<g id="edge4_Node000004_Node000005" class="edge">
<title>Node4&#45;&gt;Node5</title>
<g id="a_edge4_Node000004_Node000005"><a xlink:title=" ">
<path fill="none" stroke="#63b8ff" d="M105.49,-75.48C96.85,-74.27 88.29,-73.08 80.37,-71.98"/>
<polygon fill="#63b8ff" stroke="#63b8ff" points="105.25,-78.98 115.64,-76.89 106.22,-72.04 105.25,-78.98"/>
</a>
</g>
</g>
<!-- Node6&#45;&gt;Node5 -->
<g id="edge6_Node000006_Node000005" class="edge">
<title>Node6&#45;&gt;Node5</title>
<g id="a_edge6_Node000006_Node000005"><a xlink:title=" ">
<path fill="none" stroke="#63b8ff" d="M266.61,-51.49C210.48,-55.22 128.21,-60.7 80.08,-63.9"/>
<polygon fill="#63b8ff" stroke="#63b8ff" points="267.02,-54.97 276.77,-50.81 266.56,-47.98 267.02,-54.97"/>
</a>
</g>
</g>
<!-- Node7 -->
<g id="Node000007" class="node">
<title>Node7</title>
<g id="a_Node000007"><a xlink:href="desktop__runtime__core_8c.html#a7d0bcf8cb6683acce102c37b06a0f18b" target="_top" xlink:title=" ">
<polygon fill="white" stroke="#666666" points="219,-19 138,-19 138,0 219,0 219,-19"/>
<text text-anchor="middle" x="178.5" y="-7" font-family="Helvetica,sans-Serif" font-size="10.00">init_tefkernel</text>
</a>
</g>
</g>
<!-- Node6&#45;&gt;Node7 -->
<g id="edge7_Node000006_Node000007" class="edge">
<title>Node6&#45;&gt;Node7</title>
<g id="a_edge7_Node000006_Node000007"><a xlink:title=" ">
<path fill="none" stroke="#63b8ff" d="M279.65,-35.39C259.17,-30.1 235.51,-23.98 216.33,-19.02"/>
<polygon fill="#63b8ff" stroke="#63b8ff" points="278.85,-38.8 289.41,-37.91 280.6,-32.02 278.85,-38.8"/>
</a>
</g>
</g>
</g>
</svg>
