<?xml version="1.0" encoding="UTF-8" standalone="no"?>
<!DOCTYPE svg PUBLIC "-//W3C//DTD SVG 1.1//EN"
 "http://www.w3.org/Graphics/SVG/1.1/DTD/svg11.dtd">
<!-- Generated by graphviz version 2.42.4 (0)
 -->
<!-- Title: src/memdl/memdl.c Pages: 1 -->
<svg width="786pt" height="137pt"
 viewBox="0.00 0.00 785.50 137.00" xmlns="http://www.w3.org/2000/svg" xmlns:xlink="http://www.w3.org/1999/xlink">
<g id="graph0" class="graph" transform="scale(1 1) rotate(0) translate(4 133)">
<title>src/memdl/memdl.c</title>
<!-- Node1 -->
<g id="Node000001" class="node">
<title>Node1</title>
<g id="a_Node000001"><a xlink:title=" ">
<polygon fill="#999999" stroke="#666666" points="474,-129 360,-129 360,-110 474,-110 474,-129"/>
<text text-anchor="middle" x="417" y="-117" font-family="Helvetica,sans-Serif" font-size="10.00">src/memdl/memdl.c</text>
</a>
</g>
</g>
<!-- Node2 -->
<g id="Node000002" class="node">
<title>Node2</title>
<g id="a_Node000002"><a xlink:href="memdl_8h.html" target="_top" xlink:title=" ">
<polygon fill="white" stroke="#666666" points="117,-74 19,-74 19,-55 117,-55 117,-74"/>
<text text-anchor="middle" x="68" y="-62" font-family="Helvetica,sans-Serif" font-size="10.00">memdl/memdl.h</text>
</a>
</g>
</g>
<!-- Node1&#45;&gt;Node2 -->
<g id="edge1_Node000001_Node000002" class="edge">
<title>Node1&#45;&gt;Node2</title>
<g id="a_edge1_Node000001_Node000002"><a xlink:title=" ">
<path fill="none" stroke="#63b8ff" d="M360.93,-109.98C296.91,-100.26 192.64,-84.43 127.3,-74.51"/>
<polygon fill="#63b8ff" stroke="#63b8ff" points="127.58,-71.01 117.16,-72.97 126.53,-77.93 127.58,-71.01"/>
</a>
</g>
</g>
<!-- Node5 -->
<g id="Node000005" class="node">
<title>Node5</title>
<g id="a_Node000005"><a xlink:title=" ">
<polygon fill="#e0e0e0" stroke="#999999" points="188.5,-74 135.5,-74 135.5,-55 188.5,-55 188.5,-74"/>
<text text-anchor="middle" x="162" y="-62" font-family="Helvetica,sans-Serif" font-size="10.00">string.h</text>
</a>
</g>
</g>
<!-- Node1&#45;&gt;Node5 -->
<g id="edge4_Node000001_Node000005" class="edge">
<title>Node1&#45;&gt;Node5</title>
<g id="a_edge4_Node000001_Node000005"><a xlink:title=" ">
<path fill="none" stroke="#63b8ff" d="M372.87,-109.96C330.66,-101.69 264.96,-88.57 198.52,-74.06"/>
<polygon fill="#63b8ff" stroke="#63b8ff" points="199.23,-70.63 188.72,-71.91 197.73,-77.47 199.23,-70.63"/>
</a>
</g>
</g>
<!-- Node6 -->
<g id="Node000006" class="node">
<title>Node6</title>
<g id="a_Node000006"><a xlink:title=" ">
<polygon fill="#e0e0e0" stroke="#999999" points="257,-74 207,-74 207,-55 257,-55 257,-74"/>
<text text-anchor="middle" x="232" y="-62" font-family="Helvetica,sans-Serif" font-size="10.00">stdio.h</text>
</a>
</g>
</g>
<!-- Node1&#45;&gt;Node6 -->
<g id="edge5_Node000001_Node000006" class="edge">
<title>Node1&#45;&gt;Node6</title>
<g id="a_edge5_Node000001_Node000006"><a xlink:title=" ">
<path fill="none" stroke="#63b8ff" d="M387.28,-109.98C354.46,-100.58 301.69,-85.46 266.92,-75.51"/>
<polygon fill="#63b8ff" stroke="#63b8ff" points="267.77,-72.11 257.19,-72.72 265.84,-78.84 267.77,-72.11"/>
</a>
</g>
</g>
<!-- Node7 -->
<g id="Node000007" class="node">
<title>Node7</title>
<g id="a_Node000007"><a xlink:title=" ">
<polygon fill="#e0e0e0" stroke="#999999" points="331,-74 275,-74 275,-55 331,-55 331,-74"/>
<text text-anchor="middle" x="303" y="-62" font-family="Helvetica,sans-Serif" font-size="10.00">stdarg.h</text>
</a>
</g>
</g>
<!-- Node1&#45;&gt;Node7 -->
<g id="edge6_Node000001_Node000007" class="edge">
<title>Node1&#45;&gt;Node7</title>
<g id="a_edge6_Node000001_Node000007"><a xlink:title=" ">
<path fill="none" stroke="#63b8ff" d="M398.68,-109.98C380.34,-101.46 351.89,-88.23 330.77,-78.41"/>
<polygon fill="#63b8ff" stroke="#63b8ff" points="332.19,-75.21 321.65,-74.17 329.24,-81.56 332.19,-75.21"/>
</a>
</g>
</g>
<!-- Node8 -->
<g id="Node000008" class="node">
<title>Node8</title>
<g id="a_Node000008"><a xlink:title=" ">
<polygon fill="#e0e0e0" stroke="#999999" points="402.5,-74 349.5,-74 349.5,-55 402.5,-55 402.5,-74"/>
<text text-anchor="middle" x="376" y="-62" font-family="Helvetica,sans-Serif" font-size="10.00">stdint.h</text>
</a>
</g>
</g>
<!-- Node1&#45;&gt;Node8 -->
<g id="edge7_Node000001_Node000008" class="edge">
<title>Node1&#45;&gt;Node8</title>
<g id="a_edge7_Node000001_Node000008"><a xlink:title=" ">
<path fill="none" stroke="#63b8ff" d="M410.23,-109.75C404.44,-102.26 395.94,-91.28 388.86,-82.13"/>
<polygon fill="#63b8ff" stroke="#63b8ff" points="391.53,-79.86 382.64,-74.09 385.99,-84.14 391.53,-79.86"/>
</a>
</g>
</g>
<!-- Node9 -->
<g id="Node000009" class="node">
<title>Node9</title>
<g id="a_Node000009"><a xlink:title=" ">
<polygon fill="#e0e0e0" stroke="#999999" points="497.5,-74 420.5,-74 420.5,-55 497.5,-55 497.5,-74"/>
<text text-anchor="middle" x="459" y="-62" font-family="Helvetica,sans-Serif" font-size="10.00">sys/mman.h</text>
</a>
</g>
</g>
<!-- Node1&#45;&gt;Node9 -->
<g id="edge8_Node000001_Node000009" class="edge">
<title>Node1&#45;&gt;Node9</title>
<g id="a_edge8_Node000001_Node000009"><a xlink:title=" ">
<path fill="none" stroke="#63b8ff" d="M423.94,-109.75C429.87,-102.26 438.57,-91.28 445.82,-82.13"/>
<polygon fill="#63b8ff" stroke="#63b8ff" points="448.73,-84.1 452.19,-74.09 443.24,-79.75 448.73,-84.1"/>
</a>
</g>
</g>
<!-- Node10 -->
<g id="Node000010" class="node">
<title>Node10</title>
<g id="a_Node000010"><a xlink:title=" ">
<polygon fill="#e0e0e0" stroke="#999999" points="572,-74 516,-74 516,-55 572,-55 572,-74"/>
<text text-anchor="middle" x="544" y="-62" font-family="Helvetica,sans-Serif" font-size="10.00">unistd.h</text>
</a>
</g>
</g>
<!-- Node1&#45;&gt;Node10 -->
<g id="edge9_Node000001_Node000010" class="edge">
<title>Node1&#45;&gt;Node10</title>
<g id="a_edge9_Node000001_Node000010"><a xlink:title=" ">
<path fill="none" stroke="#63b8ff" d="M437.4,-109.98C458.02,-101.38 490.11,-87.99 513.69,-78.15"/>
<polygon fill="#63b8ff" stroke="#63b8ff" points="515.34,-81.25 523.22,-74.17 512.65,-74.79 515.34,-81.25"/>
</a>
</g>
</g>
<!-- Node11 -->
<g id="Node000011" class="node">
<title>Node11</title>
<g id="a_Node000011"><a xlink:title=" ">
<polygon fill="#e0e0e0" stroke="#999999" points="637.5,-74 590.5,-74 590.5,-55 637.5,-55 637.5,-74"/>
<text text-anchor="middle" x="614" y="-62" font-family="Helvetica,sans-Serif" font-size="10.00">fcntl.h</text>
</a>
</g>
</g>
<!-- Node1&#45;&gt;Node11 -->
<g id="edge10_Node000001_Node000011" class="edge">
<title>Node1&#45;&gt;Node11</title>
<g id="a_edge10_Node000001_Node000011"><a xlink:title=" ">
<path fill="none" stroke="#63b8ff" d="M448.65,-109.98C484.84,-100.25 543.82,-84.38 580.69,-74.46"/>
<polygon fill="#63b8ff" stroke="#63b8ff" points="581.72,-77.81 590.46,-71.83 579.9,-71.05 581.72,-77.81"/>
</a>
</g>
</g>
<!-- Node12 -->
<g id="Node000012" class="node">
<title>Node12</title>
<g id="a_Node000012"><a xlink:title=" ">
<polygon fill="#e0e0e0" stroke="#999999" points="706.5,-74 655.5,-74 655.5,-55 706.5,-55 706.5,-74"/>
<text text-anchor="middle" x="681" y="-62" font-family="Helvetica,sans-Serif" font-size="10.00">errno.h</text>
</a>
</g>
</g>
<!-- Node1&#45;&gt;Node12 -->
<g id="edge11_Node000001_Node000012" class="edge">
<title>Node1&#45;&gt;Node12</title>
<g id="a_edge11_Node000001_Node000012"><a xlink:title=" ">
<path fill="none" stroke="#63b8ff" d="M465.17,-109.96C509.63,-101.9 577.71,-89.13 645.43,-74.26"/>
<polygon fill="#63b8ff" stroke="#63b8ff" points="646.41,-77.63 655.42,-72.05 644.9,-70.79 646.41,-77.63"/>
</a>
</g>
</g>
<!-- Node13 -->
<g id="Node000013" class="node">
<title>Node13</title>
<g id="a_Node000013"><a xlink:title=" ">
<polygon fill="#e0e0e0" stroke="#999999" points="777.5,-74 724.5,-74 724.5,-55 777.5,-55 777.5,-74"/>
<text text-anchor="middle" x="751" y="-62" font-family="Helvetica,sans-Serif" font-size="10.00">stdlib.h</text>
</a>
</g>
</g>
<!-- Node1&#45;&gt;Node13 -->
<g id="edge12_Node000001_Node000013" class="edge">
<title>Node1&#45;&gt;Node13</title>
<g id="a_edge12_Node000001_Node000013"><a xlink:title=" ">
<path fill="none" stroke="#63b8ff" d="M474.03,-111.57C532.2,-104.16 625.27,-91.33 714.31,-74.19"/>
<polygon fill="#63b8ff" stroke="#63b8ff" points="715.15,-77.59 724.3,-72.25 713.82,-70.72 715.15,-77.59"/>
</a>
</g>
</g>
<!-- Node3 -->
<g id="Node000003" class="node">
<title>Node3</title>
<g id="a_Node000003"><a xlink:title=" ">
<polygon fill="#e0e0e0" stroke="#999999" points="56,-19 0,-19 0,0 56,0 56,-19"/>
<text text-anchor="middle" x="28" y="-7" font-family="Helvetica,sans-Serif" font-size="10.00">stddef.h</text>
</a>
</g>
</g>
<!-- Node2&#45;&gt;Node3 -->
<g id="edge2_Node000002_Node000003" class="edge">
<title>Node2&#45;&gt;Node3</title>
<g id="a_edge2_Node000002_Node000003"><a xlink:title=" ">
<path fill="none" stroke="#63b8ff" d="M61.39,-54.75C55.74,-47.26 47.46,-36.28 40.55,-27.13"/>
<polygon fill="#63b8ff" stroke="#63b8ff" points="43.3,-24.96 34.48,-19.09 37.71,-29.18 43.3,-24.96"/>
</a>
</g>
</g>
<!-- Node4 -->
<g id="Node000004" class="node">
<title>Node4</title>
<g id="a_Node000004"><a xlink:href="tef__api_8h.html" target="_top" xlink:title=" ">
<polygon fill="white" stroke="#666666" points="142,-19 74,-19 74,0 142,0 142,-19"/>
<text text-anchor="middle" x="108" y="-7" font-family="Helvetica,sans-Serif" font-size="10.00">../tef_api.h</text>
</a>
</g>
</g>
<!-- Node2&#45;&gt;Node4 -->
<g id="edge3_Node000002_Node000004" class="edge">
<title>Node2&#45;&gt;Node4</title>
<g id="a_edge3_Node000002_Node000004"><a xlink:title=" ">
<path fill="none" stroke="#63b8ff" d="M74.61,-54.75C80.26,-47.26 88.54,-36.28 95.45,-27.13"/>
<polygon fill="#63b8ff" stroke="#63b8ff" points="98.29,-29.18 101.52,-19.09 92.7,-24.96 98.29,-29.18"/>
</a>
</g>
</g>
</g>
</svg>
