<?xml version="1.0" encoding="UTF-8" standalone="no"?>
<!DOCTYPE svg PUBLIC "-//W3C//DTD SVG 1.1//EN"
 "http://www.w3.org/Graphics/SVG/1.1/DTD/svg11.dtd">
<!-- Generated by graphviz version 2.42.4 (0)
 -->
<!-- Title: free_modloader Pages: 1 -->
<svg width="524pt" height="88pt"
 viewBox="0.00 0.00 524.00 88.00" xmlns="http://www.w3.org/2000/svg" xmlns:xlink="http://www.w3.org/1999/xlink">
<g id="graph0" class="graph" transform="scale(1 1) rotate(0) translate(4 84)">
<title>free_modloader</title>
<!-- Node1 -->
<g id="Node000001" class="node">
<title>Node1</title>
<g id="a_Node000001"><a xlink:title="内部清理函数">
<polygon fill="#999999" stroke="#666666" points="94,-40 0,-40 0,-21 94,-21 94,-40"/>
<text text-anchor="middle" x="47" y="-28" font-family="Helvetica,sans-Serif" font-size="10.00">free_modloader</text>
</a>
</g>
</g>
<!-- Node2 -->
<g id="Node000002" class="node">
<title>Node2</title>
<g id="a_Node000002"><a xlink:href="modloader__core_8c.html#a7d1ebb55836adbf6edb34b12f68271b3" target="_top" xlink:title="清理无引用的插件">
<polygon fill="white" stroke="#666666" points="255,-67.5 130,-67.5 130,-37.5 255,-37.5 255,-67.5"/>
<text text-anchor="start" x="138" y="-55.5" font-family="Helvetica,sans-Serif" font-size="10.00">cleanup_unreferenced</text>
<text text-anchor="middle" x="192.5" y="-44.5" font-family="Helvetica,sans-Serif" font-size="10.00">_plugins</text>
</a>
</g>
</g>
<!-- Node1&#45;&gt;Node2 -->
<g id="edge1_Node000001_Node000002" class="edge">
<title>Node1&#45;&gt;Node2</title>
<g id="a_edge1_Node000001_Node000002"><a xlink:title=" ">
<path fill="none" stroke="#63b8ff" d="M94.19,-37.58C102.47,-38.85 111.26,-40.2 120.06,-41.55"/>
<polygon fill="#63b8ff" stroke="#63b8ff" points="119.53,-45.01 129.95,-43.06 120.59,-38.09 119.53,-45.01"/>
</a>
</g>
</g>
<!-- Node6 -->
<g id="Node000006" class="node">
<title>Node6</title>
<g id="a_Node000006"><a xlink:href="tefpkg_8c.html#a7f9e1ebfa4dee6bfceb98212f029ae22" target="_top" xlink:title=" ">
<polygon fill="white" stroke="#666666" points="232,-19 153,-19 153,0 232,0 232,-19"/>
<text text-anchor="middle" x="192.5" y="-7" font-family="Helvetica,sans-Serif" font-size="10.00">tefpkg_close</text>
</a>
</g>
</g>
<!-- Node1&#45;&gt;Node6 -->
<g id="edge5_Node000001_Node000006" class="edge">
<title>Node1&#45;&gt;Node6</title>
<g id="a_edge5_Node000001_Node000006"><a xlink:title=" ">
<path fill="none" stroke="#63b8ff" d="M94.19,-23.74C109.65,-21.48 126.93,-18.95 142.59,-16.66"/>
<polygon fill="#63b8ff" stroke="#63b8ff" points="143.22,-20.1 152.61,-15.19 142.21,-13.18 143.22,-20.1"/>
</a>
</g>
</g>
<!-- Node3 -->
<g id="Node000003" class="node">
<title>Node3</title>
<g id="a_Node000003"><a xlink:href="tpf__core_8c.html#a84465cf93000fb1e11583d1123e1e149" target="_top" xlink:title="卸载插件">
<polygon fill="white" stroke="#666666" points="404.5,-80 295.5,-80 295.5,-61 404.5,-61 404.5,-80"/>
<text text-anchor="middle" x="350" y="-68" font-family="Helvetica,sans-Serif" font-size="10.00">tpf_cleanup_plugin</text>
</a>
</g>
</g>
<!-- Node2&#45;&gt;Node3 -->
<g id="edge2_Node000002_Node000003" class="edge">
<title>Node2&#45;&gt;Node3</title>
<g id="a_edge2_Node000002_Node000003"><a xlink:title=" ">
<path fill="none" stroke="#63b8ff" d="M255.4,-59.67C265.21,-60.8 275.37,-61.98 285.22,-63.12"/>
<polygon fill="#63b8ff" stroke="#63b8ff" points="285,-66.62 295.34,-64.29 285.81,-59.66 285,-66.62"/>
</a>
</g>
</g>
<!-- Node5 -->
<g id="Node000005" class="node">
<title>Node5</title>
<g id="a_Node000005"><a xlink:href="tpf__core_8c.html#ab60caed61fd1b08b9ea1abcc1f4a2646" target="_top" xlink:title="通过pkg_id获取插件句柄">
<polygon fill="white" stroke="#666666" points="409,-43 291,-43 291,-24 409,-24 409,-43"/>
<text text-anchor="middle" x="350" y="-31" font-family="Helvetica,sans-Serif" font-size="10.00">tpf_get_plugin_by_id</text>
</a>
</g>
</g>
<!-- Node2&#45;&gt;Node5 -->
<g id="edge4_Node000002_Node000005" class="edge">
<title>Node2&#45;&gt;Node5</title>
<g id="a_edge4_Node000002_Node000005"><a xlink:title=" ">
<path fill="none" stroke="#63b8ff" d="M255.4,-44.94C263.71,-43.92 272.28,-42.87 280.69,-41.85"/>
<polygon fill="#63b8ff" stroke="#63b8ff" points="281.35,-45.29 290.85,-40.61 280.5,-38.34 281.35,-45.29"/>
</a>
</g>
</g>
<!-- Node4 -->
<g id="Node000004" class="node">
<title>Node4</title>
<g id="a_Node000004"><a xlink:href="tpf__core_8c.html#a6604f72633130190f987e542378281e2" target="_top" xlink:title=" ">
<polygon fill="white" stroke="#666666" points="516,-80 445,-80 445,-61 516,-61 516,-80"/>
<text text-anchor="middle" x="480.5" y="-68" font-family="Helvetica,sans-Serif" font-size="10.00">free_plugin</text>
</a>
</g>
</g>
<!-- Node3&#45;&gt;Node4 -->
<g id="edge3_Node000003_Node000004" class="edge">
<title>Node3&#45;&gt;Node4</title>
<g id="a_edge3_Node000003_Node000004"><a xlink:title=" ">
<path fill="none" stroke="#63b8ff" d="M404.75,-70.5C414.65,-70.5 424.89,-70.5 434.5,-70.5"/>
<polygon fill="#63b8ff" stroke="#63b8ff" points="434.63,-74 444.63,-70.5 434.63,-67 434.63,-74"/>
</a>
</g>
</g>
</g>
</svg>
