<?xml version="1.0" encoding="UTF-8" standalone="no"?>
<!DOCTYPE svg PUBLIC "-//W3C//DTD SVG 1.1//EN"
 "http://www.w3.org/Graphics/SVG/1.1/DTD/svg11.dtd">
<!-- Generated by graphviz version 2.42.4 (0)
 -->
<!-- Title: tefpkg_add_entry_from_memory Pages: 1 -->
<svg width="457pt" height="70pt"
 viewBox="0.00 0.00 457.00 69.50" xmlns="http://www.w3.org/2000/svg" xmlns:xlink="http://www.w3.org/1999/xlink">
<g id="graph0" class="graph" transform="scale(1 1) rotate(0) translate(4 65.5)">
<title>tefpkg_add_entry_from_memory</title>
<!-- Node1 -->
<g id="Node000001" class="node">
<title>Node1</title>
<g id="a_Node000001"><a xlink:title=" ">
<polygon fill="#999999" stroke="#666666" points="449,-48 318,-48 318,-18 449,-18 449,-48"/>
<text text-anchor="start" x="326" y="-36" font-family="Helvetica,sans-Serif" font-size="10.00">tefpkg_add_entry_from</text>
<text text-anchor="middle" x="383.5" y="-25" font-family="Helvetica,sans-Serif" font-size="10.00">_memory</text>
</a>
</g>
</g>
<!-- Node2 -->
<g id="Node000002" class="node">
<title>Node2</title>
<g id="a_Node000002"><a xlink:href="tefpkg_8c.html#acc8b9e41da1ad3396375a6b6ff4a6f9d" target="_top" xlink:title=" ">
<polygon fill="white" stroke="#666666" points="282,-61.5 131,-61.5 131,-42.5 282,-42.5 282,-61.5"/>
<text text-anchor="middle" x="206.5" y="-49.5" font-family="Helvetica,sans-Serif" font-size="10.00">tefpkg_add_entry_from_file</text>
</a>
</g>
</g>
<!-- Node1&#45;&gt;Node2 -->
<g id="edge1_Node000001_Node000002" class="edge">
<title>Node1&#45;&gt;Node2</title>
<g id="a_edge1_Node000001_Node000002"><a xlink:title=" ">
<path fill="none" stroke="#63b8ff" d="M307.66,-41.13C299.24,-42.04 290.66,-42.97 282.24,-43.88"/>
<polygon fill="#63b8ff" stroke="#63b8ff" points="308.27,-44.58 317.83,-40.02 307.51,-37.62 308.27,-44.58"/>
</a>
</g>
</g>
<!-- Node3 -->
<g id="Node000003" class="node">
<title>Node3</title>
<g id="a_Node000003"><a xlink:href="tpf__core_8c.html#a680f5e7e128fbe0515efee07107bce3d" target="_top" xlink:title="初始化内核依赖">
<polygon fill="white" stroke="#666666" points="262.5,-24.5 150.5,-24.5 150.5,-5.5 262.5,-5.5 262.5,-24.5"/>
<text text-anchor="middle" x="206.5" y="-12.5" font-family="Helvetica,sans-Serif" font-size="10.00">tpf_init_libtefkernel</text>
</a>
</g>
</g>
<!-- Node1&#45;&gt;Node3 -->
<g id="edge2_Node000001_Node000003" class="edge">
<title>Node1&#45;&gt;Node3</title>
<g id="a_edge2_Node000001_Node000003"><a xlink:title=" ">
<path fill="none" stroke="#63b8ff" d="M307.52,-25.29C292.48,-23.74 276.93,-22.14 262.7,-20.68"/>
<polygon fill="#63b8ff" stroke="#63b8ff" points="307.53,-28.81 317.83,-26.35 308.24,-21.84 307.53,-28.81"/>
</a>
</g>
</g>
<!-- Node4 -->
<g id="Node000004" class="node">
<title>Node4</title>
<g id="a_Node000004"><a xlink:href="tpf__core_8c.html#aa3e0e858003bfe94ad23eca5d45535a8" target="_top" xlink:title="初始化所有已加载的插件并将其注册到所有共享库">
<polygon fill="white" stroke="#666666" points="95,-30 0,-30 0,0 95,0 95,-30"/>
<text text-anchor="start" x="8" y="-18" font-family="Helvetica,sans-Serif" font-size="10.00">tpf_initialize_all</text>
<text text-anchor="middle" x="47.5" y="-7" font-family="Helvetica,sans-Serif" font-size="10.00">_plugins</text>
</a>
</g>
</g>
<!-- Node3&#45;&gt;Node4 -->
<g id="edge3_Node000003_Node000004" class="edge">
<title>Node3&#45;&gt;Node4</title>
<g id="a_edge3_Node000003_Node000004"><a xlink:title=" ">
<path fill="none" stroke="#63b8ff" d="M139.86,-15C124.8,-15 109.1,-15 95.04,-15"/>
<polygon fill="#63b8ff" stroke="#63b8ff" points="140.15,-18.5 150.15,-15 140.15,-11.5 140.15,-18.5"/>
</a>
</g>
</g>
</g>
</svg>
