<?xml version="1.0" encoding="UTF-8" standalone="no"?>
<!DOCTYPE svg PUBLIC "-//W3C//DTD SVG 1.1//EN"
 "http://www.w3.org/Graphics/SVG/1.1/DTD/svg11.dtd">
<!-- Generated by graphviz version 2.42.4 (0)
 -->
<!-- Title: calculate_file_checksum Pages: 1 -->
<svg width="501pt" height="101pt"
 viewBox="0.00 0.00 501.00 101.00" xmlns="http://www.w3.org/2000/svg" xmlns:xlink="http://www.w3.org/1999/xlink">
<g id="graph0" class="graph" transform="scale(1 1) rotate(0) translate(4 97)">
<title>calculate_file_checksum</title>
<!-- Node1 -->
<g id="Node000001" class="node">
<title>Node1</title>
<g id="a_Node000001"><a xlink:title=" ">
<polygon fill="#999999" stroke="#666666" points="136,-56 0,-56 0,-37 136,-37 136,-56"/>
<text text-anchor="middle" x="68" y="-44" font-family="Helvetica,sans-Serif" font-size="10.00">calculate_file_checksum</text>
</a>
</g>
</g>
<!-- Node2 -->
<g id="Node000002" class="node">
<title>Node2</title>
<g id="a_Node000002"><a xlink:href="siphash_8c.html#acf7837dd9ebfc124766cfcae39e5b509" target="_top" xlink:title="完成SipHash计算并返回最终哈希值">
<polygon fill="white" stroke="#666666" points="258.5,-93 178.5,-93 178.5,-74 258.5,-74 258.5,-93"/>
<text text-anchor="middle" x="218.5" y="-81" font-family="Helvetica,sans-Serif" font-size="10.00">siphash_final</text>
</a>
</g>
</g>
<!-- Node1&#45;&gt;Node2 -->
<g id="edge1_Node000001_Node000002" class="edge">
<title>Node1&#45;&gt;Node2</title>
<g id="a_edge1_Node000001_Node000002"><a xlink:title=" ">
<path fill="none" stroke="#63b8ff" d="M107.24,-56.03C126.14,-60.74 149.13,-66.47 169.23,-71.47"/>
<polygon fill="#63b8ff" stroke="#63b8ff" points="168.58,-74.92 179.13,-73.94 170.27,-68.13 168.58,-74.92"/>
</a>
</g>
</g>
<!-- Node5 -->
<g id="Node000005" class="node">
<title>Node5</title>
<g id="a_Node000005"><a xlink:href="siphash_8c.html#a8a8f0bc9dc6a2f76bd500268551b738b" target="_top" xlink:title="初始化SipHash计算上下文">
<polygon fill="white" stroke="#666666" points="256,-56 181,-56 181,-37 256,-37 256,-56"/>
<text text-anchor="middle" x="218.5" y="-44" font-family="Helvetica,sans-Serif" font-size="10.00">siphash_init</text>
</a>
</g>
</g>
<!-- Node1&#45;&gt;Node5 -->
<g id="edge4_Node000001_Node000005" class="edge">
<title>Node1&#45;&gt;Node5</title>
<g id="a_edge4_Node000001_Node000005"><a xlink:title=" ">
<path fill="none" stroke="#63b8ff" d="M136.3,-46.5C147.93,-46.5 159.79,-46.5 170.72,-46.5"/>
<polygon fill="#63b8ff" stroke="#63b8ff" points="170.89,-50 180.89,-46.5 170.89,-43 170.89,-50"/>
</a>
</g>
</g>
<!-- Node6 -->
<g id="Node000006" class="node">
<title>Node6</title>
<g id="a_Node000006"><a xlink:href="siphash_8c.html#a1e6e0367a691159672d00fa76e94c358" target="_top" xlink:title="更新SipHash计算状态（流式处理）">
<polygon fill="white" stroke="#666666" points="265,-19 172,-19 172,0 265,0 265,-19"/>
<text text-anchor="middle" x="218.5" y="-7" font-family="Helvetica,sans-Serif" font-size="10.00">siphash_update</text>
</a>
</g>
</g>
<!-- Node1&#45;&gt;Node6 -->
<g id="edge5_Node000001_Node000006" class="edge">
<title>Node1&#45;&gt;Node6</title>
<g id="a_edge5_Node000001_Node000006"><a xlink:title=" ">
<path fill="none" stroke="#63b8ff" d="M107.24,-36.97C126.14,-32.26 149.13,-26.53 169.23,-21.53"/>
<polygon fill="#63b8ff" stroke="#63b8ff" points="170.27,-24.87 179.13,-19.06 168.58,-18.08 170.27,-24.87"/>
</a>
</g>
</g>
<!-- Node3 -->
<g id="Node000003" class="node">
<title>Node3</title>
<g id="a_Node000003"><a xlink:href="siphash_8c.html#ab11fee5f26800354078211d367b801ad" target="_top" xlink:title=" ">
<polygon fill="white" stroke="#666666" points="493,-56 402,-56 402,-37 493,-37 493,-56"/>
<text text-anchor="middle" x="447.5" y="-44" font-family="Helvetica,sans-Serif" font-size="10.00">is_little_endian</text>
</a>
</g>
</g>
<!-- Node2&#45;&gt;Node3 -->
<g id="edge2_Node000002_Node000003" class="edge">
<title>Node2&#45;&gt;Node3</title>
<g id="a_edge2_Node000002_Node000003"><a xlink:title=" ">
<path fill="none" stroke="#63b8ff" d="M258.54,-79.88C288.15,-76.85 329.8,-71.98 366,-65.5 377.04,-63.53 388.83,-60.99 399.9,-58.41"/>
<polygon fill="#63b8ff" stroke="#63b8ff" points="400.89,-61.77 409.81,-56.05 399.27,-54.97 400.89,-61.77"/>
</a>
</g>
</g>
<!-- Node4 -->
<g id="Node000004" class="node">
<title>Node4</title>
<g id="a_Node000004"><a xlink:href="siphash_8c.html#a8a8b54d69ce501bb17e7d5dcc8fdfb32" target="_top" xlink:title=" ">
<polygon fill="white" stroke="#666666" points="356,-56 311,-56 311,-37 356,-37 356,-56"/>
<text text-anchor="middle" x="333.5" y="-44" font-family="Helvetica,sans-Serif" font-size="10.00">rotl64</text>
</a>
</g>
</g>
<!-- Node2&#45;&gt;Node4 -->
<g id="edge3_Node000002_Node000004" class="edge">
<title>Node2&#45;&gt;Node4</title>
<g id="a_edge3_Node000002_Node000004"><a xlink:title=" ">
<path fill="none" stroke="#63b8ff" d="M248.6,-73.97C264.74,-68.69 284.81,-62.12 301.28,-56.72"/>
<polygon fill="#63b8ff" stroke="#63b8ff" points="302.58,-59.98 310.99,-53.54 300.4,-53.33 302.58,-59.98"/>
</a>
</g>
</g>
<!-- Node6&#45;&gt;Node4 -->
<g id="edge8_Node000006_Node000004" class="edge">
<title>Node6&#45;&gt;Node4</title>
<g id="a_edge8_Node000006_Node000004"><a xlink:title=" ">
<path fill="none" stroke="#63b8ff" d="M248.6,-19.03C264.74,-24.31 284.81,-30.88 301.28,-36.28"/>
<polygon fill="#63b8ff" stroke="#63b8ff" points="300.4,-39.67 310.99,-39.46 302.58,-33.02 300.4,-39.67"/>
</a>
</g>
</g>
<!-- Node7 -->
<g id="Node000007" class="node">
<title>Node7</title>
<g id="a_Node000007"><a xlink:href="siphash_8c.html#affc85a56adbd7108b190a6cee4ad4f72" target="_top" xlink:title=" ">
<polygon fill="white" stroke="#666666" points="366,-19 301,-19 301,0 366,0 366,-19"/>
<text text-anchor="middle" x="333.5" y="-7" font-family="Helvetica,sans-Serif" font-size="10.00">read_le64</text>
</a>
</g>
</g>
<!-- Node6&#45;&gt;Node7 -->
<g id="edge6_Node000006_Node000007" class="edge">
<title>Node6&#45;&gt;Node7</title>
<g id="a_edge6_Node000006_Node000007"><a xlink:title=" ">
<path fill="none" stroke="#63b8ff" d="M265.14,-9.5C273.58,-9.5 282.35,-9.5 290.68,-9.5"/>
<polygon fill="#63b8ff" stroke="#63b8ff" points="290.91,-13 300.91,-9.5 290.91,-6 290.91,-13"/>
</a>
</g>
</g>
<!-- Node7&#45;&gt;Node3 -->
<g id="edge7_Node000007_Node000003" class="edge">
<title>Node7&#45;&gt;Node3</title>
<g id="a_edge7_Node000007_Node000003"><a xlink:title=" ">
<path fill="none" stroke="#63b8ff" d="M363.34,-19.03C376.82,-23.48 393.08,-28.85 407.62,-33.66"/>
<polygon fill="#63b8ff" stroke="#63b8ff" points="406.77,-37.06 417.37,-36.88 408.97,-30.42 406.77,-37.06"/>
</a>
</g>
</g>
</g>
</svg>
