<?xml version="1.0" encoding="UTF-8" standalone="no"?>
<!DOCTYPE svg PUBLIC "-//W3C//DTD SVG 1.1//EN"
 "http://www.w3.org/Graphics/SVG/1.1/DTD/svg11.dtd">
<!-- Generated by graphviz version 2.42.4 (0)
 -->
<!-- Title: tefpkg_open_readonly Pages: 1 -->
<svg width="412pt" height="38pt"
 viewBox="0.00 0.00 412.00 38.00" xmlns="http://www.w3.org/2000/svg" xmlns:xlink="http://www.w3.org/1999/xlink">
<g id="graph0" class="graph" transform="scale(1 1) rotate(0) translate(4 34)">
<title>tefpkg_open_readonly</title>
<!-- Node1 -->
<g id="Node000001" class="node">
<title>Node1</title>
<g id="a_Node000001"><a xlink:title=" ">
<polygon fill="#999999" stroke="#666666" points="404,-24.5 279,-24.5 279,-5.5 404,-5.5 404,-24.5"/>
<text text-anchor="middle" x="341.5" y="-12.5" font-family="Helvetica,sans-Serif" font-size="10.00">tefpkg_open_readonly</text>
</a>
</g>
</g>
<!-- Node2 -->
<g id="Node000002" class="node">
<title>Node2</title>
<g id="a_Node000002"><a xlink:href="tpf__core_8c.html#a680f5e7e128fbe0515efee07107bce3d" target="_top" xlink:title="初始化内核依赖">
<polygon fill="white" stroke="#666666" points="243,-24.5 131,-24.5 131,-5.5 243,-5.5 243,-24.5"/>
<text text-anchor="middle" x="187" y="-12.5" font-family="Helvetica,sans-Serif" font-size="10.00">tpf_init_libtefkernel</text>
</a>
</g>
</g>
<!-- Node1&#45;&gt;Node2 -->
<g id="edge1_Node000001_Node000002" class="edge">
<title>Node1&#45;&gt;Node2</title>
<g id="a_edge1_Node000001_Node000002"><a xlink:title=" ">
<path fill="none" stroke="#63b8ff" d="M268.64,-15C260.17,-15 251.62,-15 243.42,-15"/>
<polygon fill="#63b8ff" stroke="#63b8ff" points="268.91,-18.5 278.91,-15 268.91,-11.5 268.91,-18.5"/>
</a>
</g>
</g>
<!-- Node3 -->
<g id="Node000003" class="node">
<title>Node3</title>
<g id="a_Node000003"><a xlink:href="tpf__core_8c.html#aa3e0e858003bfe94ad23eca5d45535a8" target="_top" xlink:title="初始化所有已加载的插件并将其注册到所有共享库">
<polygon fill="white" stroke="#666666" points="95,-30 0,-30 0,0 95,0 95,-30"/>
<text text-anchor="start" x="8" y="-18" font-family="Helvetica,sans-Serif" font-size="10.00">tpf_initialize_all</text>
<text text-anchor="middle" x="47.5" y="-7" font-family="Helvetica,sans-Serif" font-size="10.00">_plugins</text>
</a>
</g>
</g>
<!-- Node2&#45;&gt;Node3 -->
<g id="edge2_Node000002_Node000003" class="edge">
<title>Node2&#45;&gt;Node3</title>
<g id="a_edge2_Node000002_Node000003"><a xlink:title=" ">
<path fill="none" stroke="#63b8ff" d="M120.81,-15C112.18,-15 103.48,-15 95.25,-15"/>
<polygon fill="#63b8ff" stroke="#63b8ff" points="120.87,-18.5 130.87,-15 120.87,-11.5 120.87,-18.5"/>
</a>
</g>
</g>
</g>
</svg>
